<svg id="Capa_1" data-name="Capa 1" xmlns="http://www.w3.org/2000/svg" viewBox="0 0 509.53 1070.28"><defs><style>.cls-1{fill:#100f14;}.cls-2{fill:#262427;}.cls-3{fill:#aa7863;}.cls-4{fill:#b37860;}.cls-5{fill:#26221f;}.cls-6{fill:#f0f0f2;}.cls-7{fill:#cecece;}.cls-8{fill:#d8d7db;}.cls-9{fill:#1a191f;}.cls-10{fill:#b37760;}.cls-11{fill:#dedee0;}.cls-12{fill:#64463b;}.cls-13{fill:#adadad;}.cls-14{fill:#2a2829;}.cls-15{fill:#ac7d48;}.cls-16{fill:#c5ab72;}.cls-17{fill:#292528;}.cls-18{fill:#26292e;}.cls-19{fill:#cbcde2;}.cls-20{fill:#feeeda;}.cls-21{fill:#ac7e45;}.cls-22{font-size:41px;font-family:Ampersand;}</style></defs><path class="cls-1" d="M466,917.32l.1,1.62c-1.33,2.9-.09,5.88-.23,8.82,0,.7.33,1.43.23,2.14-.21,1.64.6,2.15,2.09,2.48,3.33.72,3.66,1.4,2.62,4.69-.34,1.07.33,1.56,1,1.92,1.52.8,2,2.22,2.6,3.65s.5,2.88-.77,3.6c-2.13,1.2-2.56,3.13-2.71,5.16-.17,2.3-.36,4.66.66,6.87a.44.44,0,0,1-.06.5c-1.23,1.2-2.17,2.44-1.1,4.26.41.71-.07,1.39-.27,2.08a10.65,10.65,0,0,0,1.31,9.48l0,.95a.87.87,0,0,1-.11,1c-1.66,1.94-1,3.59.59,5.14a.35.35,0,0,1,.05.45,12.6,12.6,0,0,0-2.17,6.62,3.09,3.09,0,0,1-2.09,2.35,2.74,2.74,0,0,0-1.55,3.83,10.16,10.16,0,0,1,.44,5.87,6.8,6.8,0,0,0,.09,3,12.52,12.52,0,0,1-.57,8.68c-.78,1.77-.09,4,.05,5.9.24,3.12-1.08,6.34.55,9.39.34.64-.16,1.41-.32,2.11a6.92,6.92,0,0,0-.16,3.5,8.38,8.38,0,0,1-3.61,9.94,2.46,2.46,0,0,0-1.11,1.77c-.1.62-.13,1.35-.67,1.73-1.26.89-2.56,1.34-1.58,3.58.54,1.22-1.41,2.28-2.85,2.07a3.35,3.35,0,0,0-3.8,1.88c-.32.55-.78,1.24-1.36,1.28-4.45.28-8.32,3.22-13.2,2.23a74.42,74.42,0,0,0-8.72-1.61c-1.38-.12-2.47-.6-2.85-2.07a1.37,1.37,0,0,0-.81-1c-2.81-1.05-3.23-3.37-3.31-6-.06-2.37-.89-4.63-1.4-6.92a7.16,7.16,0,0,1,.56-5.22c1.36-2.64,1-3.54-1.42-5.11-2.69-1.71-2.78-4.39-2.36-7a32.88,32.88,0,0,0,.68-6.72c-.11-2.51,1.17-2.56,3.41-2,3.62.89,4.2,3.43,4.81,6.27,0,.17.05.45.18.5,3,1.21,5,4.47,8.36,4.88,4.14.52,8.35.16,12.53.2,2.23,0,4.08.52,5.17,2.76.59,1.2,4.76,2,6.51,1.17s1.85-2.38,1.71-4.15a25.48,25.48,0,0,1,.43-8.1c1-4.19-.52-8.11-.53-12.16,0-1.11-1-1.4-1.7-1.91-1.8-1.22-1.9-2.42,0-3.52,1.72-1,1.61-2.23,1.85-3.94a23.81,23.81,0,0,0-.63-9.67,3.22,3.22,0,0,1,0-1.63,28.48,28.48,0,0,0,.41-13.85c-.29-1.35.74-1.84,1.79-1.83,1.87,0,2.57-1.17,2.95-2.64.53-2,1.36-4,1.29-6.11-.09-2.93-1.59-4-4.39-3.54-3.23.58-6.27,1.76-9.41,2.59a36.64,36.64,0,0,1-19.89-.38,2.5,2.5,0,0,1-1.89-2.66c0-2.06-1.4-3.33-2.45-4.93-2-3.07-4.67-4.11-8.1-4.46-2-.21-3.48-1.49-4.84-3.42s-3-3.46-4.42-5.28a12,12,0,0,1-2.56-8.88c.13-1.54.22-3.08.28-4.62.08-1.9-.37-3.34-2.35-4.1-1.69-.65-1.84-2.25-2-3.85-.56-5-1.34-10-.7-15.16.2-1.55-.67-3-1-4.49s-.84-3,.25-4.43c.66-.88.18-1.48-.56-2a7.46,7.46,0,0,1-2.82-6.23c-.07-4.76-.5-9.48-.87-14.21a1.72,1.72,0,0,1,.21-1.05c.92-1.53,1.19-2.7-1.26-2.68a1.19,1.19,0,0,1-1.24-1.2,1.51,1.51,0,0,1,1-1.72c2-.56,2.16-1.82,1.55-3.53a3.86,3.86,0,0,1,.43-2.9c.88-2,.84-3.69-1.16-5a6.62,6.62,0,0,1-2.41-3.85,4,4,0,0,0-1.46-2.52l.1-1.64c1.34-1.33,1.44-3,1.48-4.78.08-3.65,1.05-7.22-.53-10.93-.95-2.23,1-4.3,2.44-6.07.22-.25.92-.46.84-.57-1.88-2.52,1.13-4.1,1.2-6.31.1-3.14-.32-6.25-.25-9.4.1-4.65.44-9.42-.66-14.06-.06-.27-.16-.6,0-.81,2.2-3.92.61-7.89-.29-11.63a16.82,16.82,0,0,1,.95-10.88,9.55,9.55,0,0,0,.22-4.58c-.24-2.27-.83-4.44.94-6.44.67-.76-.19-1.31-.82-1.66-4.1-2.33-4.11-2.32-3-6.61.08-.36.27-.74,0-1-2.31-1.93-3.3-5-5.69-6.81,0-.36,0-.73,0-1.09,1.33-3-.47-5.87-.17-8.85.19-1.82.3-3.6-2.09-4.92-1.37-.77-2.41-3.31-2.15-5.55a7.54,7.54,0,0,0-1.24-5.7,2.62,2.62,0,0,1-.49-2.31c.16-.65.22-1.29-.41-1.73-1.95-1.36-2.2-3.46-2.37-5.55-.22-2.71-1.49-5.35-.31-8.18.37-.9.39-2.45-.77-2.94-2.93-1.22-3.52-3.79-3.3-6.28a29.35,29.35,0,0,0-1.33-10.2,2,2,0,0,1,.08-1.82c2.32-2.77.92-5.92.95-8.9,0-2.17-1.52-3.41-3.33-4.27s-2.49-1.78-1.11-3.55c1.06-1.36.79-2.94.41-4.44a16.38,16.38,0,0,1-.17-7.81,11.8,11.8,0,0,0-.08-3.25c-.06-1.11-.73-2.62.78-3.07a3.83,3.83,0,0,1,3.72,1.23c.45.45.58,1.13,1,1.64a4.61,4.61,0,0,0,5.78,1.53c2.13-.91,4.06-1.2,6.12.37,1.31,1,2.91-.49,4.45-.13,1.69.4,3.17.36,3.75-1.89.34-1.37,1.85-1.59,3.09-1.9,1.79-.44,1.78-1.4.58-2.44-2.94-2.53-2-6.41-3.35-9.48-.34-.76.42-1.36,1.15-1.6,1.85-.61,2.23-2,1.91-3.67a4.07,4.07,0,0,1,1.13-4,2,2,0,0,0,0-3.1c-1.88-2.08-1.67-4-.15-6.37,1.23-1.91.65-4.49,1.06-6.75.17-.94-1.07-1.35-1.84-1.8-1.78-1-2.93-2.42-2.75-4.61a5.06,5.06,0,0,0-.76-2.86,3,3,0,0,1,.1-3.56c1-1.25.48-2-.89-2.35-1.57-.36-2.16-1.4-2.49-2.86-.57-2.5-.67-5.23-3.43-6.71-.9-.48-.81-1.75-.9-2.75-.32-3.59-.35-3.6-3.63-1.82-.64.35-1.3.65-2,.94a5.61,5.61,0,0,1-4.81.28c-2-.74-4.64-1.43-6.36,1.14a1.65,1.65,0,0,1-1.49.48,6.36,6.36,0,0,0-7.76-1.06,4.32,4.32,0,0,1-4.43,0,1.93,1.93,0,0,0-2.66.34c-2.68,2.55-6.16,3-9.58,3.35s-4.75-.9-5.25-4.35c-.1-.72-.19-1.44-.31-2.16s.13-1.58-.83-1.8a3.14,3.14,0,0,0-2.8.73c-.75.63-.18,1.31.07,2,.46,1.24-.6,5.64-1.62,6.49-1.19,1-2,.22-2.68-.74a5.7,5.7,0,0,1-.43-4.23,4.75,4.75,0,0,0-1.48-4.69c-1.21-3.51,0-7,.07-10.51.28-9.06-.58-18-4.86-26.12a70,70,0,0,1-7-20.43c-2.15-11.85-4.3-23.7-6.74-35.51-1.91-9.28-2.2-18.89-2-28.44.14-5.16.44-10.34.25-15.49-.41-11.44,1.84-22.78,1.09-34.22s1.61-22.93,1.28-34.44c-.11-3.89-.1-7.79-.14-11.69-.07-.17-.2-.4-.13-.52,2.38-4,.79-8.33,1.31-12.46.73-5.71-1.15-11.31-.1-17a13.42,13.42,0,0,0-.46-5.37,10.37,10.37,0,0,1,.45-6.42,3.86,3.86,0,0,0,.23-3.41c-1.86-3.71,0-7.07,1.68-10a9.61,9.61,0,0,0,1.68-5.08c-.07-3.36,1.73-6.46,1.21-9.91a56.48,56.48,0,0,1,.87-19.44,5.48,5.48,0,0,1,1.68-3.31,5.05,5.05,0,0,0,1.66-5.41,18.07,18.07,0,0,1,0-8.37,24.88,24.88,0,0,0,.43-6.51c-.14-2.81.14-5.48,3.54-6.54,1.51-.47,1.37-2,.75-3-1.2-2-1.81-3.64-.15-5.85.82-1.08,0-3,.29-4.54.25-1.33.25-3,2-3.19s2.67.85,3.12,2.42c2.14-1.68,3.11-1.7,4.68.41,1.11,1.51,2,1.31,3,.14.79-.9,1.57-2,2.94-1.45,1.61.62,1.49,2.19,1.42,3.51-.21,4.08-1.06,8.14-1,12.21a230.12,230.12,0,0,1-1.39,32.91c-.5,3.95-1.25,7.71-.45,11.65a8,8,0,0,1-.43,2.95,4.33,4.33,0,0,0,3.54,5.44c3.51.79,3.67,1.26,1.31,4-.23.27-.73.6-.43.85,2.1,1.7.37,3.51.2,5.26a5.76,5.76,0,0,0,.21,2.94,2.87,2.87,0,0,1,.27,2.13c-1.17,3-.28,6.26-1.25,9.31-.75,2.38-.76,4.87-3.28,6.56-1.44,1-1.22,3.45-1.14,5.06.16,3.46-.83,6.63-1.61,9.86-.92,3.75.76,8.57,4.08,10.57a3,3,0,0,1,1.6,2.91c-.19,3.19,0,6.89-1.68,9.28-2.43,3.45-1.5,7.31-2.85,10.76-.33.85-.37,2.12-1.25,2.3-4.14.85-2.74,4.1-2.52,6.34.31,3.15-.19,5.58-3,7.24a2.34,2.34,0,0,0-1.18,2.51,30.08,30.08,0,0,1-3.07,16.12,3.19,3.19,0,0,0-.34,2.1c.14.72.32,1.59-.17,2.11-2.06,2.21-1.51,4.9-1.61,7.49-.12,3.22-.46,6.37-3.06,8.75a4.17,4.17,0,0,0-1.19,3c-.14,2.34,0,4.7-1.82,6.66-.66.72.67,5,1.75,5.71a26.18,26.18,0,0,0,4.44,2.65,3.74,3.74,0,0,0,2.14.2c2.49-.35,6.57-4.68,6.8-7.2.14-1.39.22-2.83,1.95-3.19s2.27-1.75,2.21-3.26c-.08-2.19.92-3.46,2.69-4.64a11.25,11.25,0,0,0,4.76-7.3,7.56,7.56,0,0,1,3.4-5.3c1.06-.68,1.74-1.42,1.22-2.91-1.28-3.66.27-6.73,2.41-9.54.58-.76,1.31-1.23.66-2.27a1,1,0,0,1-.1-1c3-3.64,1-8.56,3.15-12.43.57-1,.59-2.42,1.87-2.83s1.23-1.21,1.13-2.31c-.35-3.73.53-5,4.35-6.33-.63-.81-2.15-.72-2.05-2.09a3.2,3.2,0,0,1,1.57-2.42,2.8,2.8,0,0,0,1-2.9A6.58,6.58,0,0,1,372.3,358a6.63,6.63,0,0,0,2.14-5.88,8.72,8.72,0,0,1,1.88-6.89c.49-.65,1.31-1.34,1.11-2.11-1-4,1.45-7.41,1.77-11.18.17-1.91.73-3.79,2.74-4.72a1.64,1.64,0,0,0,.94-1.26,8.26,8.26,0,0,1,3.2-4.93c1-.8,1.24-1.51,0-2.28a2.57,2.57,0,0,1-1.37-1.63c-.67-4.19-2.23-8.32-1.35-12.62a7.35,7.35,0,0,0-2.64-7.76,6.17,6.17,0,0,1-2.14-5.09c0-1.09.14-2.22-.7-3.09-3.52-3.65-3.74-8.54-4.82-13.07a27.27,27.27,0,0,0-1.95-5.84c-1.91-4-3.46-8.15-1.65-12.7.56-1.42-.29-2.55-1.33-3.28a5.65,5.65,0,0,1-2.63-5.59,3.58,3.58,0,0,0-1.07-2.71c-.83-1-1.16-2.1-.25-3.21s.51-1.58-.53-2.08a3.21,3.21,0,0,1-1.83-2.57,25.56,25.56,0,0,0-2.2-7.31,35,35,0,0,1-3-9.83c-.05-.45-.18-.89-.25-1.34-.69-4.12-.86-4.28-5.09-4.88a21.94,21.94,0,0,1-5.06-1.07c-.59-.23-1.26-.55-1.26-1.27s.63-1.08,1.23-1.31a10.58,10.58,0,0,1,4-1c4.39.13,8-2.28,11.92-3.48,1.05-.32,2.08-.92,3.16-.77,3.54.51,7-.78,10.5-.44,1,.1,1.6,0,2-1.21.87-2.56,2.19-3.43,4.72-3s4.25,0,5.67-2.13a3.29,3.29,0,0,1,2.8-1.48c2.46.1,4.69-1.54,7.23-.82a1.5,1.5,0,0,0,1.81-.92c1-2.71,3.82-3.52,5.73-5.28,1.38-1.26,2.63-.81,3.64.66,1.33,1.92,1.3,4.28,2,6.4.43,1.27-1,2-2.09,2.49-3.34,1.43-6.73,2.73-10.14,3.94-5.09,1.79-5.63,2.79-3.63,7.79a7,7,0,0,0,2.74,3.3,4.3,4.3,0,0,1,2.06,5c-.8,2.48-1,5.2-2.74,7.37-1.46,1.85-1,6.32.73,7.91a18.41,18.41,0,0,1,3.64,4.36c.9,1.54-.22,3.16.22,4.38s2.51,1.64,2.66,3.47a13.05,13.05,0,0,0,1.47,4.08,8.4,8.4,0,0,0,2.58,3,14.78,14.78,0,0,1,4.87,9.14,15.75,15.75,0,0,0,1.73,5.4c1.46,2.62,2.73,5.3,2.64,8.45a2.45,2.45,0,0,0,2.15,2.7,2.6,2.6,0,0,1,2.16,3c-.1,1.5.57,2.84.7,4.28,0,.45,0,1,.47,1.23,3.46,1.65,3.78,5.16,4.92,8.19.13.34-.18.08.07.24,2.9,1.76,2.53,5,3.46,7.61.1.26.18.61.42.68,3.89,1.1,3.37,4.63,4.07,7.45a2.11,2.11,0,0,0,.75,1.36c2.72,2,3.54,4.91,3.94,8a3.17,3.17,0,0,0,.84,1.91,13.12,13.12,0,0,1,3.32,11,1.37,1.37,0,0,0,.9,1.67c2.51,1.3,3.5,3.61,2.92,6.51-.16.85-.8,1.95.6,2.21,3.74.7,4,3.87,4.67,6.61a8.11,8.11,0,0,0,1.4,3.41,7.43,7.43,0,0,1,1.52,5.65c-.26,2.38,0,4.37,2.49,5.75,2.23,1.24,2.25,3.82,2.43,6.08.12,1.58.08,3.05,1.94,3.73a2.23,2.23,0,0,1,1.35,1.94c.11,2.65,1.74,4.51,3.13,6.51a4.85,4.85,0,0,0,.62.89c2.12,1.86-.31,5.47,2.92,7,2.65,1.29,3,4.09,3.43,6.72,0,.18.06.45.2.48,2.66.45,2.83,3.34,4.43,4.55,2.1,1.57,3.9,3.61,4.43,5.66.83,3.19,4.24,4.74,4.34,8.14,0,.77.93,1,1.63,1.28.88.32,1.76.76,2,1.72.5,2.17,2.06,2.52,3.92,2.52s3.81.07,5.72,0c.89,0,2,0,2.25-1.12a2.43,2.43,0,0,0-.66-2.75c-5.32-3.93-3.83-9.52-3.56-14.75.1-2.05.68-4.07.1-6.15a4.12,4.12,0,0,1,2.25-5.27c2.54-1.18,2.38-3.27,2.07-5.28a11.78,11.78,0,0,1,3.38-10.3c.54-.58,1.58-.89,1.49-1.81-.26-2.74,1-4.64,3-6.29,1-.78,1-2.11,1.08-3.29a4.18,4.18,0,0,1,2.88-3.93c1.82-.6,2-1.83,1.58-3.46-.94-4.05-.79-4.32,3.1-5.61a1.37,1.37,0,0,0,1.09-1.58c-.09-3,.61-5.6,3.71-6.91,1.23-.53.9-1.6.89-2.59,0-2.76.12-5.2,2.89-7.12,1.75-1.22,1.46-4.05,1.19-6.12-.61-4.77-1.29-9.47.42-14.15a1.78,1.78,0,0,0,0-1.34c-1.53-2.49-1.1-4.81.19-7.28.88-1.68-.54-2.85-1.59-4a2.12,2.12,0,0,1-.14-1.22c1.81-2,2-4.36,1.35-6.86a4.39,4.39,0,0,1,0-2.16,3.9,3.9,0,0,0,.24-2.15c-1.89-4.66,0-9.43-.46-14.13-.17-1.63-.58-3-2.15-3.83a3.53,3.53,0,0,1-1.7-2.66,23.64,23.64,0,0,1-.32-8.13,22.15,22.15,0,0,0,.15-4.07c-.07-1.7-.19-3-2.24-3.74-2.25-.82-2.5-3.15-2.38-5.34a22.14,22.14,0,0,0,.19-4.61c-.24-1.71-.71-3-2.52-3.82-2.27-1-2.38-3.31-2.24-5.42.11-1.63,0-2.86-1.81-3.42a2,2,0,0,1-1.12-1.14c-2.46-5.28-6.14-10.1-5.23-16.53.43-3-1.45-5.54-3.16-7.92-.64-.89-1.53-1.72-1-2.92s1.9-1.23,3.06-1.28a6,6,0,0,1,4.94,1.86,4.52,4.52,0,0,0,2.11,1.67c2.12.47,3.32,1.45,3.34,3.87,0,1.36,1.47,1.4,2.58,1.3,2.61-.22,5-.2,5.58,3.18a1.34,1.34,0,0,0,1.72,1c5.63-1,8.26,3.25,11.26,6.62a4.48,4.48,0,0,0,3.55,1.9c2,.08,4.33.1,4.94,2.87.24,1.07,1.21,1,2,.9,2.85-.28,5.12.94,7.23,2.64,1.4,1.13,2.62,2.52,4.47,3,.44.11,1.06.53.94.87-1,2.72,2.12,3.56,2.5,5.58s.45,4.28,1.41,6.31a4.46,4.46,0,0,1,0,3.73,5.92,5.92,0,0,0,.31,5.47,6.44,6.44,0,0,1-3,8.29,3.66,3.66,0,0,0-2.51,3.94c0,3.29.61,6.86-2.82,9.12.7,2.69-1.52,4.92-1.33,7.38.39,4.83.46,5-4.38,5.95a4.05,4.05,0,0,0-2,.7c-1.23,1-2.38,1.16-3.55-.14a1.42,1.42,0,0,0-2-.39c-.61.47-.11,1.17,0,1.78.33,2.3-.25,2.95-2.16,2.12-1-.41-1.72-.79-2.28.29s-1.29,2.2-.11,3.22c1.91,1.63,1.33,3.17,0,4.68a3,3,0,0,0-.42,4c.9,1.36,2.24.95,3.45.54,3.64-1.25,6.71-.88,9.17,2.49.86,1.17,2.55,1.56,3.44,3,2.69,4.27,1.14,8.42-.11,12.59a1.57,1.57,0,0,1-2,1.08c-2-.43-2.1.91-1.49,2,2.34,4.33.06,7.76-2.11,11.09-2,3.05-3.28,5.85-.34,9,1.17,1.28.71,2.77-.36,4A7.24,7.24,0,0,0,549,355.1c-.17,1.44,0,2.72,1.51,3.47a2.65,2.65,0,0,1,1.33,1.33c1.65,4.31,2.8,8.66.85,13.2-.29.68-.61,1.47-1.29,1.7-2.55.82-2.42,2.95-2.35,4.89a76.7,76.7,0,0,1-.64,11.93c-.17,1.51-.34,2.95-2.42,2.92-1.47,0-1.47,1.2-1.42,2.17a98.94,98.94,0,0,1-.59,17.12,3.32,3.32,0,0,0,1,2.7,2.29,2.29,0,0,1,.07,1.61,5.12,5.12,0,0,0-.21,6.62,1.59,1.59,0,0,1,0,.78c-.89,1.31-1.21,2.46.19,3.81s.68,3.17.23,4.63a15,15,0,0,0,0,9.58c.38,1.13.84,2.33.26,3.44a5.57,5.57,0,0,0,.21,5.44,7.58,7.58,0,0,1-.27,6.83c-.86,1.89-1.16,3.37,1.48,4.16a2.4,2.4,0,0,1,1.21,3.95c-2.11,2-2.1,4.85-3.53,7.12-1.53,2.45-3.1,4.66-5.82,5.8-1.74.73-2.67,1.76-2,3.78s-.29,3.4-1.6,4.63a10.33,10.33,0,0,0-3.14,5.57c-.43,2.05-1.09,4.06-3.74,4.44-1.19.16-1.19,1.29-.87,2.19,1.5,4.18-.47,8-1,12-.09.63-.37,1.39-1,1.58-3.33,1-2.27,3.76-2,5.84.29,2.81.75,5.41-.45,8.23-1,2.44.35,5.17.23,7.8,0,.88,1.22.92,2,1.15,1.38.42,2.58,1,2.45,2.74-.08,1.07.52,1.17,1.4.92,4-1.11,7.79-.08,11.34,1.4,2.86,1.2,3.9,4.14,4.2,7.16.34,3.47.34,3.34,3.77,4.24,2.2.58,4.29,1.33,6.64.91a1.89,1.89,0,0,1,2,1.5,1.74,1.74,0,0,1-1.07,2.22c-1.07.56-2.08,1.12-2.17,2.54-.06,1-.09,1.88,1,2.25,1.71.58,2.39,2.11,3.34,3.43,1.2,1.64,1.68,3.18.21,4.91a2.05,2.05,0,0,0-.46,1.8c1.55,6.18.31,12.13-1.34,18.08-.53,1.88.92,3.42,1.64,5,.6,1.33,1.43,2.53,1.28,4.07,0,.37-.08.81.2,1,2.74,2.26,2.71,5.41,2.61,8.48-.11,3.92,1.5,7.87-.22,11.76a1.37,1.37,0,0,0,0,1.07c1.76,3,0,6.32.76,9.47.37,1.62-1.12,3.48.25,5.18.16.2.07.75.14.77,3.73.66,2.24,4.61,4.09,6.44a7.21,7.21,0,0,1-.25,4.43,4.77,4.77,0,0,1-2.71,2.14c-2.26.42-2.31,1.87-2.12,3.63a18.58,18.58,0,0,0,.94,3.4c.66,2.1,1.2,4.21-.08,6.3a2.76,2.76,0,0,0-.12,2.38,11.82,11.82,0,0,1-.21,7.23c-1.2,4-.58,8.1-.57,12.16a3.6,3.6,0,0,0,.83,2,2,2,0,0,1-.65,2.32c-1.51,1.07-3.19,2-1.68,4.31a1.9,1.9,0,0,1-.52,2.27c-3,2.28-1.88,5.62-2.13,8.5s.29,6,.07,8.94c-.12,1.64-.38,3.22.87,4.62a1.81,1.81,0,0,1,.06,2.3c-1.16,1.56-1,3.24-.6,4.95.69,3-.08,6-.39,8.93s1,5.42,2.14,8a2.47,2.47,0,0,1,.34.69,2,2,0,0,1-1,2.32c-1.82,1-1.85,2.2-.81,3.79a3.1,3.1,0,0,1,.12,2.65c-.85,2.72-1.21,5.41.31,8.06a2.41,2.41,0,0,1-.35,2.57,4.16,4.16,0,0,0-.65,3.63,13.51,13.51,0,0,1-.27,9.81,2.61,2.61,0,0,0,1.46,3.63c2.65,1.25,3,3.92,4.14,6.14a1.12,1.12,0,0,1-.05,1c-2.33,3.89-.4,8.13-1,12.17-.17,1.23.32,2.76-.66,3.61-2.09,1.83-.82,3.4.05,5,.25.47.75.8.94,1.33a10.84,10.84,0,0,1,.36,3.88,8.85,8.85,0,0,1-1.18,3.26c-1.87,2.95-1.23,7.84,1.11,9.91a5.14,5.14,0,0,1,.61,3,29.93,29.93,0,0,1-4.41,8.62,5.09,5.09,0,0,0-.19,7.26c1.08,1.1,1.34,2.06.33,3.29a5.31,5.31,0,0,0-1,5.13,6.57,6.57,0,0,1,.15,2.69c-.38,3.4,1.8,7-.76,10.25,1,2.34.59,5,1.68,7.32a54.85,54.85,0,0,1,4.16,12.85c.38,1.9.3,3-.9,4.39-.92,1.09-.66,2.55.1,3.84A41.65,41.65,0,0,1,567,905.2c1,3.33.86,4.52-2.13,6.51-1.28.85-2.74,1.43-1.12,3.2.18.2.34.62.22.75-1.79,1.84-.95,5.32-4,6.36-2,.67-1.83,2.56-2,4.11-.23,1.85.49,3.74-.18,5.63-.29.81.62,1.23.95,1.85a3.06,3.06,0,0,1,.36,1.17c.15,2.12-1.11,3.22-2.91,3.7a2.29,2.29,0,0,0-2,2.7c.08,2.86-1,5.5-1.94,8.16a3.93,3.93,0,0,1-3.54,2.58,19.6,19.6,0,0,1-6-.13,12.57,12.57,0,0,0-6.18.39,7.9,7.9,0,0,1-4.81,0c-2.68-.74-5.28.91-8,.44-.91-.15-1,1.2-.87,2,.62,2.93.58,5.84,1.9,8.82a30.58,30.58,0,0,1,2.7,15.32,4,4,0,0,1-1.64,3c-1.58,1.12-2.63.79-3.19-1.1-.34-1.14-.55-2.3-1.7-3-2.09-1.21-2.59-3.19-2.48-5.38.09-1.72,0-3.44,0-5.16s0-3.21-2-4.35-1.93-4.73-.1-6.19c1.57-1.25,2-2.46,1-4.19a2.54,2.54,0,0,1-.29-1.59c.4-2.4-.86-3.2-2.88-4.31a9.33,9.33,0,0,1-4.74-9.2,73.75,73.75,0,0,0-.22-10.3,67.39,67.39,0,0,1,.39-6.74,23.26,23.26,0,0,0-.24-6.44c-.59-2.44,1.14-4.36,2.64-6s1.71-3-.13-4.5a5.09,5.09,0,0,1-1.53-3.39c-.29-1.6-.51-3.25-1.81-4.45v0a4.71,4.71,0,0,1,2.85-4.29,3.28,3.28,0,0,0,2-3.46,16.16,16.16,0,0,1,.15-3.26c.15-.78.14-1.43-.84-1.67-2.46-.59-2.9-2.63-3-4.65-.21-5.84-1.41-11.68-.33-17.55a1.63,1.63,0,0,0-.48-1.48c-1-1.13-.85-2.28-.14-3.49.81-1.39.5-2.47-.76-3.55-2.83-2.43-2.67-4,.53-5.61a1.77,1.77,0,0,0,1.21-2.11,15.32,15.32,0,0,1-.38-3.23c0-1.15-.24-1.91-1.64-1.9-1.67,0-2.16-1.21-2.16-2.57,0-6.44-.38-12.85-.94-19.27-.22-2.5,1.32-5.13-.43-7.59v-1.44c-.77-3,.95-5.61,1.11-8.49.14-2.72.53-5.36-.08-8.09s.66-5.81-1.05-8.49c-.19-.3,0-.72.18-1,1.88-2.88,1.27-5.89.42-8.88a7.34,7.34,0,0,1,0-4.54,13.31,13.31,0,0,0,.63-4.82c0-2.05-.34-3.56-2.9-4-2.29-.42-2.65-2.53-2.3-4.57s.59-4.14,1-6.15c.73-3.49-1.86-6.39-1.29-9.77.1-.65-.51-1-1.23-1.2-3-.79-3.57-1.53-3-4.46a5.38,5.38,0,0,0-.76-4.12,13.83,13.83,0,0,1-1.83-8.34c.07-1.93,0-3.82-1.36-5.39l0-1.63a8.84,8.84,0,0,0,.67-5.51c-.65-4.19-1.49-8.34-1.8-12.57a9.39,9.39,0,0,0-1.56-4.29.35.35,0,0,1,0-.44c-.57-1.66.67-2.29,1.76-2.89,1.3-.71,1.49-1.49.39-2.49-3.4-3.12-3.4-7.31-3.19-11.33.16-3-.22-5.52-2.62-7.55-1.58-1.34-1.9-3.27-1.79-5.21a3,3,0,0,0-1.66-3.11c-2.47-1.4-3.19-3.52-2.44-6.24.64-2.37.67-4.68-1.31-6.55v-.55c1.83-2.25.69-4.47-.11-6.67-.36-1-1.25-.85-2.1-.7-2,.34-2.65-.75-2.55-2.51.05-.82.28-1.67-.5-2.26-2.32-1.78-2.53-4.38-2.41-6.91a6,6,0,0,0-1.69-4.91c-1.06-1.1-1.85-2.47-2.8-3.68-.55-.7-1.06-1.62-2.1-1.54s-1.19,1.23-1.52,2c-.41,1-.7,2.06-1,3.1a4.06,4.06,0,0,1-2.12,2.71,2.49,2.49,0,0,0-1.71,2.77c.53,3.57-.76,7.27.8,10.75a2,2,0,0,1,.09,1.61c-1.67,3.66-.85,7.72-1.8,11.5-.24,1-.19,2.15-1.1,2.68-2,1.17-2.23,2.88-1.91,4.9a8.9,8.9,0,0,1-.41,3.23c-.36,1.58-.37,3,1.06,4.21a2.24,2.24,0,0,1,.77,2.7c-.77,1.72-.34,3.69-.9,5.24-1.2,3.39-.25,6.84-1,10.17a4.06,4.06,0,0,0,.66,3.13,3.59,3.59,0,0,1,.54,3.38c-2.06,4.13-1.43,8.7-2.37,13-.14.63-.05,1.46-.69,1.69-2.09.73-2.6,2.29-2.53,4.27.07,1.71-.19,3.4.91,5A3.78,3.78,0,0,1,449,720c4.59.82,4.21,4.37,4.21,7.41,0,4.07-.36,8.13.05,12.21.2,2-.58,3.94-1.15,5.85-.13.44-.3,1-.7,1.13-4.26,1.13-1.81,4.22-1.88,6.5-.09,2.9,1,5.75-.23,8.73-.84,2.09-.38,4.49-.15,6.75.26,2.5.8,5-.43,7.44-.61,1.23-.05,2.69-.05,4.05,0,1.87,1.72,1.58,2.76,2.09a6.67,6.67,0,0,1,2.66,2.63.44.44,0,0,1,0,.49c.3,2.08-.16,4.12-.25,6.17-.21,4.71-1.51,9.36-.92,14.1a7.86,7.86,0,0,0,3.11,5.81c1.38,1,2.29,2.22,1.94,3.91a41.46,41.46,0,0,0-.39,7.55c0,1.27.2,2,1.33,2.63a4.55,4.55,0,0,1,2.41,3.74c.61,4.63,2.07,9.2.68,13.95-.46,1.56-.13,2.85,1.86,3.18,1.34.21,1.59,1.29,1.56,2.49a135,135,0,0,0,1.12,17.06c.3,2.9,1.3,5.64-.36,8.42-.37.61,0,1.43.08,2.15,1,7.68.48,15.34-.18,23-.26,2.94-.72,6,1.14,8.7a.85.85,0,0,1-.12,1v0C465.23,911.66,465.45,914.46,466,917.32Z" transform="translate(-313.45 -22)"/><path class="cls-2" d="M640.06,113.61c3.6-3.6,5.66-8.76,10.19-11.28,5.65-3.15,12.08-4,18.47-3.62,7.6.41,15.24,1.2,22.39,4,6.89,2.7,14.07,4.87,20.38,8.81,3.26,2,6.28,4.56,9.4,6.87a6.42,6.42,0,0,1,2.35,2.94c1.44,4.77,5.47,7.3,8.69,10.55.89.9,2,1.64,2.5,2.84,3.88,9.37,8.35,18.53,10.32,28.58a19.9,19.9,0,0,0,2.54,7.13,41.63,41.63,0,0,1,6.38,18.63,27.58,27.58,0,0,0,3.78,10.69,49.56,49.56,0,0,1,4.93,12,10.54,10.54,0,0,0,3.48,5.77c6,4.64,7.44,11.6,9.53,18.23.59,1.9.87,3.92,1.59,5.77,2.46,6.34,2.33,13,2.27,19.58,0,4.91.77,9.76.54,14.69-.48,10.3-3.41,20-7,29.52a8.78,8.78,0,0,1-2.48,3.19c-1.65,1.69-3,.5-4.22-.56-2-1.73-3.27-4.1-4.77-6.24a41,41,0,0,0-5.25-6.57c-1.7-1.62-2.24-3.92-3-6a31.34,31.34,0,0,0-4.22-8.12c-.91,1.17-1,2.46-1.35,3.61-1.55,4.83-3.18,9.64-4.27,14.61-.78,3.55-3.21,4.87-6.76,4a12.37,12.37,0,0,1-6-3.53c-1.16-1.2-2.4-2.24-4.23-2.05-1.88.58-2.73,2.34-4,3.6-2.78,2.87-5.94,4.11-9.82,2.84-2.83-.92-5-.6-6.59,2.29a5.4,5.4,0,0,1-5,2.69,31.67,31.67,0,0,1-5.42-.2,21.4,21.4,0,0,0-8.62.29,8.86,8.86,0,0,1-5.62,0c-1.55-.78-2.34-2.22-3.17-3.64-1.42-2.4-2.3-2.71-4.88-1.7-1.1.42-2.17.94-3.23,1.45-8.14,3.85-20.31-2.5-21.1-11.84-1-12.15-1.86-24.26.15-36.37.58-3.45.07-6.92-.23-10.3-.54-6-.37-12-.37-18,0-6.15-.75-12.07-3.49-17.72-1.44-3-1.43-6.4-1.25-9.63.24-4.44.68-8.87,1.24-13.28.53-4.13-.53-8.14-1-12.17a54.35,54.35,0,0,1-.2-13.6c.76-6,0-11.8-.35-17.66-.61-9.21-2-18.37-1.46-27.64A3.34,3.34,0,0,0,640.06,113.61Z" transform="translate(-313.45 -22)"/><path class="cls-3" d="M640.06,113.61c2.13-1,3.08-.88,2.8,2-.38,4-.82,8.27-.3,12.16.6,4.48.71,9,1.34,13.46,1.34,9.38.73,18.82.59,28.24a30.36,30.36,0,0,0,.44,7.32c1.78,7.59.4,15.14-.13,22.71-.31,4.45-.38,8.77,1.77,12.95,3.13,6.12,2.85,12.86,2.72,19.47a204.56,204.56,0,0,0,.94,22c.28,3.12-.92,6-1.14,9.13a190.38,190.38,0,0,0,.69,30.39c.73,8.44,12.38,14.87,20.5,10.43a16.3,16.3,0,0,1,3.2-1.49c3.19-.92,4-.5,5.38,2.55a10.25,10.25,0,0,0,2.69,3.71c.64.93.16,1.76-.33,2.51-2.32,3.56-4.19,7.37-6.82,10.76-4.44,5.72-7.11,12.32-8.91,19.29-.2.79-.28,1.63-1.11,2.07-3.78.32-7.56.69-11.35.92-5.81.37-11.11,2.6-16.32,4.81a20.91,20.91,0,0,1-10.32,1.39,7.8,7.8,0,0,1-2.85,0,84.52,84.52,0,0,1-11.14-.07,7.65,7.65,0,0,1-.94-.09c-4.35-.79-8.74-1.38-13.09-2.17a29,29,0,0,1-7.54-2.21c-2.83-1.37-6.05-1-9-1.77-1.89-1.19-2.56-3.14-3.07-5.14-.34-1.3-.57-2.62-1-3.88a5.88,5.88,0,0,1,.09-4c1.47-3.92,2.52-8,3.87-11.92a25,25,0,0,1,3.76-7.52A25.29,25.29,0,0,0,590.8,298a41,41,0,0,1,9.25-22.61c2.57-3.13,4-6.9,6.08-10.31,1-1.62,1.77-3.77,4.4-3.29,1.32-.1,2.72.44,3.94-.48,1.94-.53,3.56.29,5.06,1.33s2.62,1.53,4.23.52a4.55,4.55,0,0,1,3.46-.23,2.11,2.11,0,0,0,2.86-1.7,8.59,8.59,0,0,1,3.25-4.88,4.33,4.33,0,0,0,1.66-2.43,39.74,39.74,0,0,0-.14-18.56c-.76-2.83-1.85-3.43-5.19-2.89-5.42.86-10.59-1.07-15.92-1.2a4.6,4.6,0,0,1-2.47-1.07c-3.12-4.41-4-9.36-4.45-14.68-.21-2.36-1.24-4.81-1.14-7.36,0-.46-.11-1.05.12-1.34,3.27-4.13,1.63-8.61,1-13a5.16,5.16,0,0,1,1.25-4.29c1.16-1.34.87-2.36-.38-3.46s-2.61-2.52-3.87-3.82c-1.95-2-1.81-4,.36-5.79a1.12,1.12,0,0,1,.22-.16c5.52-2.85,7.42-8.08,8.89-13.58.11-.66,1-1.06.59-1.88,2.52-5,3-10.29,2.74-15.73a5,5,0,0,1,1.66-4.13c4.7-4.4,8.44-9.66,12.94-14.26a26.21,26.21,0,0,0,6.24-9.64A7.07,7.07,0,0,1,640.06,113.61Z" transform="translate(-313.45 -22)"/><path class="cls-1" d="M530.38,302.65c3.7,1.06,3.09,3.83,1.51,6.18-.95,1.41-1.25,2.26.07,3.43.94.84.77,2.05.56,3.08-.44,2.29-1.08,4.54-1.64,6.8-.08.34-.28.8-.14,1,2.71,4.09.43,8.63,1.18,12.89a.63.63,0,0,1-.56.79c-1.05,0-2.36-.5-2.79.89s-1.2,3.16-.72,4.76c.66,2.23.5,3.63-2.19,4.11-1.47.26-2.84,3.78-2.37,5.36.64,2.15,0,3.05-2.17,3s-3.11.92-2.51,3.06a21.93,21.93,0,0,1,.85,2.56c.23,1.62-.28,3-2.14,3.16-2.21.17-2.72,1.62-2.68,3.37.05,2.43-.82,4.26-3.06,5.26-1.33.59-.84,1.58-.81,2.54,0,1.66.46,3.4-2,4-1.18.29-1.86,1.78-2.17,3-.38,1.44,0,3.05-1.5,4.17-.55.39,0,1.18.47,1.64.81.82.42,1.66.41,2.64,0,2.64-1,3.95-3.53,4.61a2.27,2.27,0,0,0-1.33,2.73c1,2,.43,4.05.7,6.05,0,.35.25.89.09,1-2.05,1.91-.15,4.31-.84,6.44-.84,2.62.53,4.9,2,7,.32.45.56,1,1.23.85,1.35-.26,1.37.32,1.34,1.52-.13,4.3-.05,4.35-4.51,4.28-2.44,0-4.92.38-7.32-.29-1-.29-2.26-.42-1.8-2.09s-.61-1.95-1.85-1.94a2,2,0,0,1-2.26-2.16,5.9,5.9,0,0,0-4.72-5.71c.21-1.07,1.47.12,1.66-.77s-.61-1.25-1.1-1.74a6.84,6.84,0,0,1-1.79-2.69c-.2-.62-.37-1.41-1.06-1.46-2.24-.18-2.85-1.17-2.54-3.41.17-1.24-1.37-1.13-2.35-1.17s-2.13-.31-1.62-1.18c1.14-2-.56-3.16-.82-4.7-.22-1.26-.7-2.42-2.58-1.93-1.29.33-1.84-.76-1.55-1.88,1-3.81-1.39-6.27-3.43-8.83-.45-.58-1-1-1-1.81,0-2.15.18-4.27-2.93-4.49-.92-.07-1-1.22-.75-2.05.59-1.76-.23-3.38-.41-5.06-.1-.84-.51-2-1.4-2.21-3.89-.86-3.23-3.78-3.07-6.45.15-2.43,0-4.67-2.52-5.93-.53-.27-1-.78-.61-1.28,1.26-1.55-.15-2.73-.44-4-.42-2-1.13-3.47-3.73-3.36-1.76.07-1.82-1.33-1.16-2.76,1.25-2.74.21-5-2.63-6-1.09-.4-1.91-1.13-1.33-2.51,1.36-3.21-.22-8.5-3.18-10.58-.48-.34-1-.76-.81-1.29.74-1.92-.22-3.32-.92-5s-1-3.44-3.35-3.49a.69.69,0,0,1-.6-1c1.12-1.69,0-2.89-.5-4.42s0-3.36-2.68-2.61c-.59.17-1-.88-.93-1.46a8.41,8.41,0,0,0-1.09-5.1,15.72,15.72,0,0,1-3.16-5.49c-.12-.46-1.1-.9-1.05-1.69.13-2-.36-3.43-2.8-3.25-.48,0-1.07-.44-.92-.8.9-2-1.17-3.73-.58-5.71.53-1.78-.05-2.7-2-2.33-1.17.22-1.69-.33-1.91-1.38-.15-.7-.61-1.47-.46-2.1.75-3.37-1.15-6.11-2.68-8.52-1.34-2.12-1-4.29-1.76-6.34-.57-1.6-1.52-3.07-2.13-4.53-1.37-3.3-5.68-4.2-6-8.14-.06-.71-.63-1.46-.59-2.3.06-1.32-.15-2.06-1.86-2.27-1.43-.17-2.87-1.38-.76-2.91,1.16-.84.31-1.56,0-2.32-.93-2.39-3.08-3.72-4.82-5.4-1-1-1.6-1.95-.73-3.32a3,3,0,0,0,.18-2.88,1.42,1.42,0,0,1,.09-1.55c.9-1,3.67-1.3,1-3.35-.2-.15.24-.56.52-.81,3.11-2.74,2.91-5.35-.58-7.63a6.65,6.65,0,0,1-2.53-3.74c-.42-1.28-.47-2.63-1.2-3.86-.5-.85-.48-2.23.69-2.56,1.62-.45,2.85-1.62,4.4-2.07,3.78-1.08,7.34-2.73,11-4.1,1.76-.65,2.36-1.5.58-2.8-.78-.58-1.2-1.11-.5-2,.49-.62.2-1.1-.15-1.7-1.1-1.89-1.86-3.11-3.9-.54-1.4,1.76-4.38,2.13-4.82,5a1.57,1.57,0,0,1-1.32.73c-2.51-1-4.76.88-7.14.56a3.32,3.32,0,0,0-3.8,1.92c-1.19,2.37-3.17,2.42-5.32,1.86-2.92-.76-4.11.06-4.19,3.08,0,1.13-.47,1.81-1.66,1.48-2.11-.59-4.2-1.35-6.16.37a.65.65,0,0,1-.53.06c-5.45-1.76-10,1.16-14.69,2.94-2.87,1.08-6,.61-8.87,1.53-.42.13-.82.31-1.57.61,2,1.16,4,1.12,5.86,1.5,1.32.27,2.69.4,4,.78a2.7,2.7,0,0,1,2.08,2.78c.22,3.49.57,7,2.67,10a2.17,2.17,0,0,1,.18,2.08c-.28.79-.11,1.75.53,1.93,2.46.65,1.81,2.54,1.87,4.16.09,2.06-.23,4.14,2.8,4.69,1.41.25,1.47,2,.17,2.71-1.94,1.09-1.24,1.72,0,2.67a2.86,2.86,0,0,1,1.05,3.37c-.5,1.83-.1,3.42,2,4.16,1.69.61,1.7,2.46,2.57,3.68.12.17,0,.54-.05.78-1.87,5.15-1.33,8.71,1.89,13.42a4.72,4.72,0,0,1,.89,2.79c-.31,3.68,1.84,6.77,2.22,10.25a1.12,1.12,0,0,0,.11.53,19.81,19.81,0,0,1,4.1,10.81c.1,1.72,2.41,1.58,3.27,3.29,1.26,2.53,1.13,4.74.75,7.28-.59,4,1,7.8,1.31,11.73.06.79.95.69,1.51.92a2,2,0,0,1,1.49,1.77c0,.92-.71,1.38-1.44,1.82-1.92,1.13-3.52,2.5-3.06,5.07.13.77-.16,1.49-.84,1.4-2.7-.36-2.52,1.73-2.91,3.29-.54,2.15-.38,4.42-1.69,6.48a4.78,4.78,0,0,0-.18,3.92,2.8,2.8,0,0,1-.76,3.4c-2,2.21-3.3,4.52-1.88,7.56a2.11,2.11,0,0,1-.58,2.25c-.6.79-1.37,1.42-.88,2.63a1,1,0,0,1-.95,1.35c-2.84.24-2.71,2.56-2.47,4.21.31,2.15.48,3.77-2,4.52a1.29,1.29,0,0,0-.89,1.52c.21,1.16,1,.46,1.45.29.9-.32,1.45,0,1.63.86a1.55,1.55,0,0,1-1.28,2c-4.14,1.17-4.7,2.13-3.41,6.19.44,1.41-.2,2.63-1.25,2.18-1.74-.73-1.68.41-1.91,1.23a40.86,40.86,0,0,1-1.71,5.72,2.38,2.38,0,0,0-.18,1.6c.86,2.36,1.13,4.12-1.67,5.76-1.23.73,1.2,1.33,2.37,2.48-4.7.53-4.47,4.44-5.72,7.38a1.87,1.87,0,0,0,.27,2.25c1.87,2,.76,3.4-1,4.32-2,1-3.15,2.27-3.11,4.75a6.59,6.59,0,0,1-1.64,3.87c-1.5,1.81-2.29,4.39-5.14,5-.82.16-1,1.21-.85,2.29.44,3.13-.28,4.1-3.28,4.79-1.27.29-.77,1.24-.87,1.94-.18,1.33.61,3.22-.59,3.87-2.42,1.32-3.87,3.92-6.55,4.69a6.23,6.23,0,0,1-4.43-.76c-3.39-1.55-4.87-4.37-6-7.64-.3-.89-.16-1.51.5-1.85,1.83-.91,1.87-2.47,1.79-4.16-.11-2.51.2-4.69,2.54-6.45,1.82-1.37,1.57-3.95,1.78-6.08a47.08,47.08,0,0,0,0-5.18c0-1.19-.15-2.38,1.35-2.91.33-.12.8-.84.7-1-1.82-3.83,1.95-6.29,2.38-9.63s1.18-6.86.57-10.36a2.48,2.48,0,0,1,1.63-3c2.84-1.33,3.44-3.25,2.46-6.31-.6-1.86.6-3.83-.16-5.84-.29-.76.94-1.33,1.79-1.06,2,.63,2.12-.46,2.45-2,.53-2.55,1.21-5,.56-7.64a1.11,1.11,0,0,1,.31-1c4.7-3,2.34-8.16,3.8-12.15.19-.52-.38-1.13-.94-1.15-3.93-.19-3.54-3.89-4.76-6.11-1-1.77-.64-3.88-.07-6.11.72-2.82,2.14-5.65,1.29-9-.36-1.39.57-3.53.72-5.37,0-.38.54-1,.77-1,2.51.28,2.54-1.83,2.61-3.16.16-2.92,2.54-5.67.7-8.77-.35-.59.32-1.16.74-1.63a2,2,0,0,0,.29-2.72c-1.55-2.1-.74-4.06.42-5.91.52-.84.62-1.32-.39-1.59-.83-.22-1.68-.43-1.63-1.47s.9-1.28,1.77-1.31c1,0,1.58-.66,1.42-1.57s-1.18-.55-1.82-.59a5.11,5.11,0,0,1-4.82-6.75c.67-2.42,1.42-4.82-.69-7.12-1-1-.36-2.56.53-3.51,1.19-1.26,1.21-2.69,1.32-4.26.82-11.31,1.25-22.62,1.13-34,0-3.69.7-7.37,1-11.06.07-.84.42-2-.67-2.43-1.29-.53-1.38.78-1.87,1.45a3.37,3.37,0,0,1-3.23,1.62c-1.32-.13-1.19-1.12-1.38-2-.25-1.13-1.13-1.32-2.1-1.26s-1.4.37-1.22,1.37c.13.74-.07,1.34-1,1.16-.72-.14-1.25-.81-.9-1.4,1.25-2.08-.91-2.31-1.65-2.44-1.45-.24-1.15,1.22-1.24,2.16a11.51,11.51,0,0,0,0,4.3c.14.49.15,1.44-.09,1.56-3.17,1.56-.45,3.08,0,4.53,1,3,.63,3.72-2.4,4.59-2.35.67-2.21,3-2,4.49a23,23,0,0,1-.43,7.82,15.9,15.9,0,0,0,.15,8.05,5.24,5.24,0,0,1-2.36,6.27c-.48.33-.92.58-.95,1.2-.23,4.05-1.21,8-1.32,12.09-.11,3.84.73,7.56.56,11.31-.11,2.36-1.3,4.67-1.44,7.18-.05.81-.4,1.46.28,2.14,1,1,.44,1.66-.6,1.94-1.7.45-2.19,1.65-2.46,3.2a16.69,16.69,0,0,1-1.13,3.62c-.52,1.2-.62,2.24.38,3.23a2.49,2.49,0,0,1,.43,3.26,8,8,0,0,0-1.08,6.57c1.06,3.22.7,6.23.42,9.31-.29,3.33,1.16,6.68.71,9.67-.52,3.47.64,7-.63,10.3a1.93,1.93,0,0,0-.11.53,48.08,48.08,0,0,1-1.75,6.35c-1.23-3.87-.13-7.73.06-11.59a37.6,37.6,0,0,0-.94-10.53,54.25,54.25,0,0,1,1.06-29,97,97,0,0,0,3.94-18.55c.44-4-.53-8.08.2-12.16,1.28-7.11,1-14.46,3.31-21.41a5.19,5.19,0,0,0,.46-1.84c-.56-9.34,3.37-18.1,3.41-27.38,0-4.27,3.35-6.14,6.56-7.94.28-.05.64-.1.75.15,1.2,2.87,3.66,2.74,6.15,2.69a41.84,41.84,0,0,1,6.53.13c3.2.45,4.61,2.16,3.81,5.29-2.22,8.75-1.85,17.65-2.14,26.55-.34,10.24-.7,20.5-1.91,30.7a14.74,14.74,0,0,0-.07,3.81c.36,2.38,1.45,2.9,3.56,1.79.93-.49,1.83-1.52,2.95-.73s.8,1.95.68,3c-1.7,15.08-3.26,30.2-8.63,44.57a13.58,13.58,0,0,0-.77,3.45c-.31,3.46.43,4.49,3.84,5.37,2.19.57,2.72,1.5,2.38,4.39a120.31,120.31,0,0,1-5.36,24.46c-3.66,10.85-7.5,21.64-10,32.85-1.67,7.54-2.82,15.19-5.24,22.56-.87,2.68-2,5.27-2.72,8-.57,2.12,2.53,5.51,4.71,5.15,1-.17,1.39-1.13,1.79-1.92,2.05-4,4.42-7.73,6.67-11.57a108.28,108.28,0,0,1,6.56-10.36c3.31-4.44,5.22-9.54,6.78-14.8,1-3.31,2-6.61,2.86-10,2.55-9.89,6.22-19.39,10-28.83,4.24-10.58,7.1-21.56,10.14-32.51.77-2.8,1.52-5.56,3.86-7.65,1.44-1.28.87-3.25.7-4.93a67.64,67.64,0,0,0-3.3-15.15c-3.27-9.45-6.52-18.91-9.31-28.51-3-10.47-6.49-20.82-9.1-31.41-1.74-7.06-4.55-13.81-6.11-20.93-.74-3.41-3.68-4.26-6.68-4.6-2.62-.3-5.29.11-7.9-.23-1.27-.16-3.16,0-2.76-2.32,5-4,11.37-4.35,17.11-6.39,7.9-2.8,16.44-3.33,24-7.36,2.34-1.26,5.23-1.44,7.73-2.46,12.19-5,24-10.61,33.81-19.7a20.15,20.15,0,0,1,6.86-4.67,17.74,17.74,0,0,1,.08,6.12c-.75,6.8.47,13.27,2.42,19.69,2.33,7.33,4.14,14.81,6.34,22.18,2.76,9.21,4.94,18.59,7.7,27.79,3.57,11.88,6.42,24,11.48,35.41,1.56,3.51,1.9,7.36,3.23,10.94,1.86,5,4.62,9.64,6.58,14.63,1.12,2.87,2.5,5.63,3.37,8.6C469,322.28,471.41,326,473,330a383.86,383.86,0,0,1,13.77,41.83c1.05,3.94,2.6,7.7,4,11.53a51.09,51.09,0,0,0,6.4,19.45c.84-9.43,4.06-18.24,8.51-26.64a51,51,0,0,0,3.78-9,41.34,41.34,0,0,1,7.16-13.67c5.56-7,8.41-15.24,10.06-23.84,1.54-8,3.36-16,2.82-24.25A3,3,0,0,1,530.38,302.65Z" transform="translate(-313.45 -22)"/><path class="cls-4" d="M440,159.8c1.77-2.82,1-5.91.77-8.88-.08-1.22-.33-2.46-.38-3.71,1.67-4.42,2.05-9.17,3.36-13.69.53-1.81.71-3.74,1.29-5.56a15.42,15.42,0,0,0,.59-5.9c-.37-4.54-.38-9,1.48-13.4a9.22,9.22,0,0,1,8.56-6c7.7-.51,12,4,15.43,10,1.35,2.38,1.94,5.09,3.23,7.5.56,1,1.06,2.11,1.67,3.13.85,1.41,1.92,1.67,3.08.46a80.34,80.34,0,0,1,8.68-7.81c1.62-1.27,1.43-3.25,1.16-5.08a26.08,26.08,0,0,1-.17-6.78,6.65,6.65,0,0,1,4.86-5.94c2.07-.71,4.26-.92,6.3-1.71,2.59-1,3.22-2.25,2.33-4.87-.65-1.89-1.57-3.67-2.26-5.55a14.15,14.15,0,0,1,2-14.17A10,10,0,0,1,517.2,71a17.49,17.49,0,0,1,3.51,5.47,4.19,4.19,0,0,0,7.35,1.06c1.62-2.05,3.54-3.85,4.55-6.4s2.93-2.46,4.42-.16a25.85,25.85,0,0,1,1.33,2.69c1.42,2.9,2.94,5.69,6.52,6.4a1.13,1.13,0,0,1,.75.74c-1.75.37-2.13,1.23-1.63,3a174,174,0,0,1,4.78,23.58,48.3,48.3,0,0,1,.09,8.42,6.19,6.19,0,0,1-1.77,3.57c-2,2.4-3.05,5.09-2,8.3.84,2.48,1.39,5.08,2.67,7.39A27.47,27.47,0,0,1,551.21,150c-.12,2.7-1.22,4.43-3.88,4.67-2,.18-4.08.89-6.18.3s-2.6,1.43-3.58,2.6a7,7,0,0,0-4.38-.95,35.23,35.23,0,0,1-7.85-.65c-1.44-.2-2.91-.13-4.33-.33-7.41-1-13.09,2.72-18.77,6.52-3.85,2.57-8.1,2.93-12.53,2.52a84.15,84.15,0,0,0-9.53-.12,11.73,11.73,0,0,1-7.86-2.55c-3.13-2.52-6.83-4.62-7.69-9.11-.09-.51-.34-1.16-1-1.11-.85.07-.89.86-.83,1.47a49.31,49.31,0,0,0,2.64,11.37,5.28,5.28,0,0,0,3,2.68c5.81,2.78,10.09,7.69,15.47,11.06a8.69,8.69,0,0,1,2.59,2.77,43.14,43.14,0,0,0,12.35,12.1c1.24.85,2.74,1.65,2.22,3.63a3,3,0,0,1-1.05,1.35c-5.39,2-10.1,5.3-15.17,7.91a14.94,14.94,0,0,1-13.77.43,41.47,41.47,0,0,1-6-3.16c-6.55-4.25-12.71-9-18.78-13.9a41.24,41.24,0,0,1-9-10.43,10.47,10.47,0,0,1-1.25-8.13C436.92,167.07,437.75,163.18,440,159.8Z" transform="translate(-313.45 -22)"/><path class="cls-5" d="M545.63,80.81c-2.8.42-4.64-.94-6.13-3.14a26.57,26.57,0,0,1-3.16-6.3,2,2,0,0,0-1.75-1.51c-1.05-.06-1.06,1-1.16,1.56-.57,3.38-3.49,5.19-5.29,7.7-1.92,2.67-7.16,1.21-8.24-1.92C518,71.8,514.69,69,510,68.83c-5.15-.14-9.64,4.58-10.16,10.43-.36,4.12,1.33,7.63,3,11.15,1.82,3.92,1.05,5.91-3.07,7.14-2.42.73-5,.93-7.31,2a4,4,0,0,0-2.48,3,17.7,17.7,0,0,0-.11,7.83c.76,3.4-.07,6.13-3.26,7.83-2.9,1.55-4.6,4.34-6.91,6.49-2.07,1.93-3.3,1.75-4.6-.81-1.38-2.75-2.53-5.61-3.76-8.44-3.18-7.32-7.85-12.69-16.2-11.9a7.83,7.83,0,0,0-7,5c-2,4.6-2,9.35-1.5,14.17a8.65,8.65,0,0,1,0,3c-1.53,6.41-3.56,12.72-4.12,19.34a2.27,2.27,0,0,1-2.13,2.13c-1.79-1-1.86-2.71-2.16-4.42-1-5.52-.68-11.51-4-16.24-3.52-5.08-4.05-11.45-7.87-16.3a9.83,9.83,0,0,1-1.74-4.82,8.08,8.08,0,0,0-.6-2.91c-3.78-6.48-1.16-12.89.18-19.28.55-2.65,1.45-5.23,1.66-8A23.15,23.15,0,0,1,428.8,66a70.57,70.57,0,0,0,5.52-13.29,16.2,16.2,0,0,1,2-4.45c2.5-3.72,5.45-7.06,7.79-11s7.38-5.86,12.09-6.65a19.75,19.75,0,0,0,9.14-3.85c3.57-2.75,7.6-3,11.89-2.61,6.46.64,12.92,1.84,19.31-1a18.77,18.77,0,0,1,8.82-1.14c4,.26,6.37,3.3,9,5.71a57,57,0,0,1,5.78,6.86c1.06,1.35.89,3.09,1,4.73,6.91-5.16,8.59-4.6,9.82,3.45,2.57-1.6,3.75-.25,4.32,2.11.41,1.68.66,3.38,1.07,5.06a2.22,2.22,0,0,0,2.89,1.89,5.51,5.51,0,0,1,6.59,4.95c1-1,1.88-2.29,3.61-1.36a3.67,3.67,0,0,1,2.14,3.77,178.29,178.29,0,0,1-2.72,18.55A4.24,4.24,0,0,1,545.63,80.81Z" transform="translate(-313.45 -22)"/><path class="cls-3" d="M696.74,497.27c-5.85,4.35-12.9,6.41-19.15,10-7.47,4.28-15.09,8.21-23.32,10.83a11.79,11.79,0,0,0-6.61-8.17c-1.43-.72-2.15-2.73-2.59-4.37-.67-2.46-2.19-4.35-3.55-6.38s-3.37-3.22-6.06-2.47a4.6,4.6,0,0,1-3.21,0,1.48,1.48,0,0,1-.54-.57c0-1.43,1.13-2,2.14-2.56a35.21,35.21,0,0,1,7.32-3.51,13.62,13.62,0,0,0,6.18-3.8c3.24-3.47,7.14-6.1,10.88-8.95a8.87,8.87,0,0,0,2.91-2.25c5.62-4.14,10.49-9.22,16.24-13.17,4.23-2.91,8.12-6.39,12.9-8.49,3-1.69,6-3.47,9.32-4.3a3.67,3.67,0,0,0,3-3.12c1.45-7.61,1.5-15.09-2.13-22.21a17.14,17.14,0,0,1-1.23-3c1.28-6.44-.05-12.95.55-19.46.46-5.06,0-10.31-.26-15.47a4.92,4.92,0,0,1,.3-2.93,1.59,1.59,0,0,1,1.73-.43c4.79,1.72,9.61.27,14.41.21a54.23,54.23,0,0,1,12.89,5.08,10.15,10.15,0,0,1,3.13,3c1.84,2.3,4,2.57,6.43.88a14.34,14.34,0,0,0,2.84-2.93,15.14,15.14,0,0,1,9.23-5.37c2.91-.57,5.41.76,6.28,3.19-3.48,8.77-4.63,18-6,27.27-.51,3.39-1.57,6.7-2.09,10.08-1.37,9.1-3.62,18.05-4.46,27.25-.5,5.43-2.55,10.54-4.84,15.48a16.15,16.15,0,0,1-5.65,7.15,44.74,44.74,0,0,0-8.19,7.11,27.58,27.58,0,0,1-10.52,7,5.83,5.83,0,0,0-1.27.47A63.52,63.52,0,0,1,696.74,497.27Z" transform="translate(-313.45 -22)"/><path class="cls-6" d="M696.74,497.27a272.33,272.33,0,0,0,9.4,29.44c5.25,13.45,5.09,27.27,1.86,40.84-2.08,8.79-3.46,17.82-6.41,26.32-2.59,7.5-3.07,15.18-4.21,22.82-.9,6-1.66,11.93-.24,18.06.91,3.91.18,8.1.6,12.19.35,3.5.92,7,1.08,10.5a111.81,111.81,0,0,1-.61,13.55c-.38,5-.87,9.91-1.44,14.84-1.11,9.63-1.53,19.3-2,29-.3,5.6-.22,11.25-1.26,16.77-1.87,9.92-.81,19.91-1,29.87a32.35,32.35,0,0,0,1.16,8.85,38.89,38.89,0,0,1,.93,11.61,43.13,43.13,0,0,0,2.71,16.5c-.45.92-1.84.78-2.15,2,1.34,1,1.92-.93,3-.8,1.25,8.4,2.58,16.8,2.47,25.33,0,2.16-.3,4.33-.5,6.49-.9,9.91,1.25,19.47,3.51,29,1.36,5.68.5,11.15-.61,16.65-.69,3.42-3.32,5.27-6.35,6.55-1,.43-2,.71-3.08,1.06-4.56,4.31-6.77,10.12-8.64,15.74-1.63,4.89-4.79,8.37-7.71,12.19a20.76,20.76,0,0,1-8,6.38,16.77,16.77,0,0,0-4.5,3c-2.27,2.57-5,4.18-8.56,4a5.89,5.89,0,0,0-2.65.58c-7.2,3.39-15,3.94-22.75,5.07-2.53.37-5.06-.31-7.6-.41-7.51-.93-15.11.79-22.62-1a20.66,20.66,0,0,1-12-7.34,35.9,35.9,0,0,1-5.69-9c-.4-.88-.84-1.81-.12-2.77,1.87-.2,2.42-1.11,1.78-2.93a41.32,41.32,0,0,1-1.5-8c-.34-2.31.27-4.09,2.59-5,1-.85,1.09-1.63-.14-2.35a2.41,2.41,0,0,1-1.09-1.18,26.58,26.58,0,0,1,1.45-10.94,2.66,2.66,0,0,1,.95-.48c.78-.28,2.15.42,2.25-.86.09-1.11-1.34-1-2.06-1.44-1.56-1.14-1.38-2.73-1.13-4.33,1.08-1.72-.05-3.18-.54-4.72-.23-2.3-1.68-4.77.92-6.67,1.89-2.14,1.87-2.26-.63-3a1.7,1.7,0,0,1-1.23-.92c-.62-3.08-.84-6.2-1.27-9.3-.21-1.52-.33-3,.78-4.35,1.69-1.52.34-2.33-.76-3.21a1.24,1.24,0,0,1,0-1.08c1.07-.93,3.71-.63,2.58-3.29a2.72,2.72,0,0,1,.06-.75c1-2.36,1-2.36-2.16-3.61a23.48,23.48,0,0,1-1.54-3.7c-.28-.93-.66-1.85-.12-2.81,1.66-1.37,2.91-.05,4.1.76,1.6,1.08,2.94,1.75,4.93.53,1.63-1,3.42.48,5.18.67s5.77-1.35,6.51-2.8c.18-.35.22-.72-.13-1s-.69-.06-1,.19a9.09,9.09,0,0,1-2.37,1.76c-3.43,1.58-5.52-.82-7.59-2.67-1.59-1.43-2.64-1.61-4.42-.34-2.25,1.62-4.38.23-6.4-1-.7-1.83-.24-3,1.84-3.3.6-.08,1.43-.13,1.31-1-.09-.69-.8-.71-1.31-.59-2.7.67-2.77-1.18-2.93-3a6.77,6.77,0,0,1,0-2.06,24.67,24.67,0,0,0,0-2.58,7.67,7.67,0,0,1-.09-2.14c-.22-2.24-.74-4.44-1-6.68-.17-1.71-.42-3.44.65-5,.55-.79.35-1.4-.23-2.16-2-2.58-1.77-3.74.79-5.82a2.64,2.64,0,0,0,1.46-2.56,1.56,1.56,0,0,1,.39-.62,5,5,0,0,1,.65-.45c.52-.31,1.16-.52,1.22-1.26a.47.47,0,0,0-.47-.51c-.81,0-.94.69-1.2,1.22a2.31,2.31,0,0,1-1.45,1.43c-2.5.3-3.13-1.43-3.46-3.31a37.63,37.63,0,0,1,0-8.42,17.51,17.51,0,0,1-.1-3.69c.41-1.22-.22-2.54.36-3.73,1.4-1.41.8-2.72-.2-4a5.67,5.67,0,0,1,1-3.74c1.51-1.87,3.9-3.31,3.14-6.32a4.12,4.12,0,0,1-.16-1.1c.41-1.89-.91-2.41-2.28-2.9-1.36-1-1.3-2.35-1.07-3.77.51-1.28,1-2.56-.06-3.82a4.42,4.42,0,0,1,0-4.37c1.72-1.66.86-2.84-.72-3.89a2.39,2.39,0,0,1,.69-3.17c1.21-.93,1.06-1.66,0-2.6a3.36,3.36,0,0,1-.79-4.24,4,4,0,0,0,0-4.31,2.34,2.34,0,0,1,.33-2.57c1.62-1.24.66-2.47,0-3.7-.56-1.91,0-3.76.34-5.6.17-.86.44-1.84,1.74-1.53,1.5,1,2.77,1.09,3.59-.85.34-.81,1.57-.91,1.7-2.3-2.17.55-3.08,3.65-5.69,2.65a3.92,3.92,0,0,1-.84-3.56,7.74,7.74,0,0,0-.4-2.92,3,3,0,0,1-.06-.94c-.22-4-.53-8.08-.52-12.13a9.43,9.43,0,0,1,2.33-4.18c.44-.4,1.15-.78.79-1.53-.27-.56-.93-.42-1.45-.45a4.27,4.27,0,0,1-1.07-.17c-1.78-1.71-1.5-3.66-.67-5.67,2.66-1.69,2.66-1.69.93-4.47a3.21,3.21,0,0,1-.59-1.77,1.53,1.53,0,0,1,.76-1.28c1.45,0,2.7-1.29,4.25-.67a5.68,5.68,0,0,1,.9,2c1.39,3.29,2.43,3.66,5.54,2,.43-.24.74-.52.65-1,0-.29-.34-.57-.57-.46-3,1.5-4.3-1.75-6.52-2.41-1.1-1.27-2.67-1.69-4.14-2.32-1.22-1.88-.84-3.91-.54-5.93.48-1.42,1.1-2.83.23-4.32-.31-1.81-.43-3.43,2.3-2.75,1,.26,1.5-.41,1.57-1.35a4.83,4.83,0,0,1,.92-2.51c.27-.59,1-1.42-.06-1.68-.79-.2-.65.81-.66,1.38a3.31,3.31,0,0,1-.1,1.29,2.31,2.31,0,0,1-2.77,1.17c-1-.39-.89-1.45-.78-2.37a4.18,4.18,0,0,0,0-3.89,3,3,0,0,1,.25-2.31,1,1,0,0,1,.37-.35c2.7-1.06,2.7-1.07.42-2.9-1.3-2.74-1.51-5.37.82-7.72.64-.64.75-1.25,0-1.82-2.34-1.82-2.31-4.34-2.11-6.92a3.32,3.32,0,0,1,.35-2c.47-.95,1.73-.89,2.42-1.92-1.26-1-3.77-.64-3.63-3.12a7.91,7.91,0,0,0-.57-3.63c.41-2.81,1.48-5.6-.61-8.34-.55-.74-.34-2.26.32-3.33a2.82,2.82,0,0,1,.76-.7c2.11-1.45,2.11-1.47-.17-2.73-2.16-1.79-1.77-4.17-1.39-6.49.18-1.14,1-1.4,2-1,.5.2,1.12.45,1.44-.15.45-.86-.41-1-.91-1.34a2.24,2.24,0,0,1-1.41-2.12,3.45,3.45,0,0,0-.78-5,7.73,7.73,0,0,1-1.07-3.61,40.1,40.1,0,0,0-1.11-9.38,7.2,7.2,0,0,1,.18-4.28c.4-.8,1-1.4,1.93-1.07s.66,1.19.79,1.89c.44,2.49,1.27,3,3.74,2.27,2-.61,3.81-1.69,5.85-2.21,2.58-.65,3.27-.15,3.47,2.48.24,3,1.16,3.46,3.73,1.77a17.21,17.21,0,0,1,5.55-2.81c2.71-.23,5.16.86,7.62,1.71,3,1,5.32.36,7.59-1.88,2.85-2.83,4.5-6.35,6.29-9.77,3.53-6.74,6.66-13.69,10.83-20.08a8.21,8.21,0,0,0,1.12-4.4A2.48,2.48,0,0,1,634.6,526,4.21,4.21,0,0,1,637,527c3.94,2.58,8.1,2.06,11.58-1,2.63-2.3,3.85-5.35,5.37-8.28,2.95-1.82,6.28-2.8,9.4-4.24a130.17,130.17,0,0,0,14.93-7.85,25.34,25.34,0,0,1,4.7-2.17,35.61,35.61,0,0,0,10.09-5.27C694.07,497.45,695.21,496.42,696.74,497.27Z" transform="translate(-313.45 -22)"/><path class="cls-7" d="M756.75,386.57c-4-4.32-9-2.22-13.28,1.14-1.47,1.16-2.51,2.85-3.82,4.22-2.58,2.72-7.26,2.7-8.83-1.11a4.73,4.73,0,0,0-2.77-2.47l-11.76-5c-.73-1.15,0-1.86.8-2.51.44-.34.87-.71.57-1.34s-.73-.5-1.18-.48c-4.09.2-5.56-2.89-7-5.8a35.21,35.21,0,0,0-2.18-4.34c-1-1.4-1.47-2.92-.37-4.54.72-1.08.07-1.56-.84-2.08-3.08-1.76-4.12-4.9-2.55-8,.57-1.11.24-1.55-.57-2.22a7.1,7.1,0,0,1,.84-11.22c2.09-1.34,4.05-2.81,4.06-5.66A4.7,4.7,0,0,1,708,334c.42-3.22,1.07-6.41,1.63-9.6a13,13,0,0,1,2-5.28,5.48,5.48,0,0,0,1.46-3.72c1-2.26,1.36-4.85,3.64-6.36,1.11.06,1.75,2.62,2.92,1,.95-1.32-1.3-1.45-1.84-2.34-.63-1.5.42-2.39,1.28-3.25,2.48-2.46,4.86-5,7.12-7.68a4.05,4.05,0,0,1,4.41,1.89c1.65,2.53,4.34,3.5,7.15,4,2.48.45,4.14-.85,4.63-3.81,1.09-6.57,3.85-12.64,5.44-19a10,10,0,0,1,.67-1.38,65.83,65.83,0,0,1,4.08,7.27c1.78,4.35,3.22,8.69,6.93,12.06,2.7,2.46,3.89,6.3,6.48,9,1.17,1.23,2.35,2.3,4.23,1.76,1.36,2.65,2.91,5.21,4.32,7.82,2.15,4,2.86,8.52,3.43,13,.14,1.16-.23,2.51.23,3.5,2.26,4.86,1.92,10.12,2.39,15.21.69,7.38,1,14.81,1.17,22.22.1,5.54-1.87,10.68-4.26,15.6-1.12,2.3-3.16,3.32-5.73,3.52a26.6,26.6,0,0,1-12-2C758.88,387.05,757.79,386.86,756.75,386.57Z" transform="translate(-313.45 -22)"/><path class="cls-8" d="M610.53,261.74c-2.27,1-3.37,3-4.36,5a79.37,79.37,0,0,1-7.32,11.71,39.4,39.4,0,0,0-7.26,20.21c-.34,4.32-1.37,8.22-4.12,11.55-3.62,4.39-5.1,9.73-6.81,15-.67,2.07-1.19,4.19-2,6.19a5.2,5.2,0,0,0-.26,3.4c-6.36,2.79-9,8.42-11,14.51-.56,1.69-.45,3.6-1.68,5.09-2.15,1.88-4.37,3.7-6.59,5.51s-3.64,1.68-5.7,0c-1.78-4.45-2-9.14-2-13.85,0-1.3.57-2.3,2.15-2.24.52,0,1.12.11,1.35-.59a.57.57,0,0,0-.44-.6c-2.7-.75-3.18-1.31-2.14-4,1.68-4.32,2.68-8.87,4.59-13.11a40.63,40.63,0,0,0,1.91-5.67,10.25,10.25,0,0,0-.52-7.69c-1.8-3.61-1.64-7.59-2.18-11.44a1.45,1.45,0,0,1,.55-1.41,8.1,8.1,0,0,0,.32-5.19,3,3,0,0,1,.4-2.29c1,.09,1,.09,1-1.63.59-1.13,1.59-.92,2.58-.84.54,0,1.2,0,1.06-.77-.1-.51-.66-.49-1.12-.38-.65.15-1.32.76-1.93-.08-.37-3.84.55-7.51,1.7-11.11.88-2.75,2.07-5.4,3.1-8.11a6.65,6.65,0,0,1,1.44-2.59,20.47,20.47,0,0,0,5.15-6.72c10.56-5.74,22-5.91,33.59-5.54a11.06,11.06,0,0,1,5.77,2.18C612.12,257.94,612.22,259.14,610.53,261.74Z" transform="translate(-313.45 -22)"/><path class="cls-9" d="M336.82,213.39c.52,1.41,1.74,1.43,2.93,1.44,2.55,0,5.09,0,7.64,0,4.45.12,6.85,2.24,8.08,6.52,3.71,12.89,7.31,25.81,11.15,38.66,3,9.91,5.83,19.85,9.08,29.66,2.05,6.2,4.49,12.28,6,18.66a50.2,50.2,0,0,1,1.5,11.27c0,1,.07,2.25-1,2.66-2.45,1-2.84,3.27-3.32,5.27-3.82,16-9.29,31.46-15.35,46.72-3.4,8.54-5.4,17.48-8.1,26.23a61,61,0,0,1-8.34,17.25,181.23,181.23,0,0,0-11.91,20.12c-1.67,3.21-2.06,3.32-4.79,1.13a3.25,3.25,0,0,0-.68-.43c-3.79-1.62-4.1-1.91-2.58-5.67,4.39-10.84,5.91-22.39,8.65-33.64a261.64,261.64,0,0,1,8.35-26.73,134.93,134.93,0,0,0,6.25-27.21c.22-1.63.28-3.12-2.28-2.8-2.19.28-4-1.68-4.22-4-.37-4.07,1.57-7.59,2.66-11.3a136.31,136.31,0,0,0,5.58-29.55c.22-3.33.88-6.62,1.38-9.93a3,3,0,0,0-.08-2.14c-1-.19-1.44.64-2,1.12-1,.89-2.1,1.58-3.43.9a3.86,3.86,0,0,1-1.92-3.39c-.29-2.75.42-5.42.71-8.11.19-1.8.32-3.6.39-5.41.46-11.95,1.34-23.88,1.21-35.87-.05-4,1.09-8,2-12,.69-3-.3-4.1-3.44-4.19a55.74,55.74,0,0,0-7.08,0c-3.11.3-5.3-.43-5.8-3.87A7.08,7.08,0,0,1,336.82,213.39Z" transform="translate(-313.45 -22)"/><path class="cls-3" d="M588.73,922.25c2.1,1.42,3.45,3.71,5.81,4.83a31,31,0,0,0,18.07,2.85c3.53-.52,7,.28,10.5.59,1.88,2.8,3,5.68,1.6,9.13a36.19,36.19,0,0,0-1.78,7.37c-1,5.89-1.73,11.82-4.12,17.37a15.2,15.2,0,0,0-.95,4.23,74.19,74.19,0,0,1-1.75,11.56,7.17,7.17,0,0,1-6.17,6c-5.14.92-10.24,1.43-15.32-.45a51.32,51.32,0,0,0-8-1.78,14.14,14.14,0,0,1-6.73-2.76c-1.17-1-1.92-.73-2.41.67-.63,1.8-1.51,3.5-2.12,5.31-1.08,3.15-.84,4.07,1.87,6,4.53,3.27,9.91,4.36,15.15,5.87,5.85,1.68,11.68.93,17.52.1,3.19-.46,4.83.38,4.47,3.28-.84,6.74,2,13,1.9,19.66,0,5,1.35,9.88,1.09,14.89-.06,1.22,0,2.4-1.4,3-2.45.61-4.19-1.56-6.46-1.64-1.77,0-3.51,0-5,1.21-1.94,1.62-2,1.57-3-.85a3,3,0,0,0-1-1.26c-.84-.57-1.76-.28-2.65-.3-8.87-.18-17.72.78-26.58.64-.82,0-1.64,0-2.45.07-5.09.42-5.08.42-7.29-4.05q-2.76-5.6-5.24-11.31c1.93-4.56,3.65-9.25,6.1-13.54,4.11-7.21,6.82-15,9.43-22.75,4.11-11.41,9.14-22.45,12-34.35a137.42,137.42,0,0,0,3.35-26.58C587.32,924.17,586.94,922.63,588.73,922.25Z" transform="translate(-313.45 -22)"/><path class="cls-1" d="M395.09,845.88c1.45-.1,2.08.59,2.35,2a5.29,5.29,0,0,0,3,4.19c2.05,1,1.81,3.56.84,5.06-1.12,1.71-.84,2.94-.16,4.48s.74,2.66-1.57,2.5c-.73-.06-2.17,0-1.93,1.27.21,1.1,1.3.57,2.05.31.58-.21,1.17-.64,1.64.18a2.29,2.29,0,0,1-.34,3c-1,.92-1.43,1.53,0,2.44a1.28,1.28,0,0,1,.45,1.7c-.39.67-1.65,1.1-1.18,2,2.26,4-.21,8.68,1.7,12.76.5,1.06.74,2.12,2.22,2.44,1.22.26,1.94,1.74,1,2.49-1.83,1.45-1.36,2.88-.67,4.46,1.76,4,.44,8.14.73,12.21.21,3.11,1.3,6.11,1,9.3-.1,1.13,1,1.3,1.95,1.5a2.63,2.63,0,0,1,2.31,3.12c-.16,2.25-.18,4.51-.35,6.77-.2,2.75-.07,5.79,2.76,7.64a1.81,1.81,0,0,1,.84,1.62c0,2.64,3,2,3.63,3.1.75,1.37.32,3,2.7,3.45,2,.36,3.89,1.34,6.06.59,1.11-.38,1.8.42,1.74,1.48a3.14,3.14,0,0,0,1.89,3,5.38,5.38,0,0,1,2.77,5.7c-.11.86-.05,1.34.9,1.59a41.71,41.71,0,0,0,19.3.55c2-.42,3.84-1.65,5.84-2.18a25.18,25.18,0,0,1,6.48-1c2.16,0,3.7,3.12,3.17,6.07a39.71,39.71,0,0,1-1.33,5.26c-1.06,3.29-1.11,3.27-5.21,3.13,1.63,2.56.61,5.33.94,7.89.39,3-.81,5.37-1.12,8-.16,1.33.59,2.79,1,4.17a6.15,6.15,0,0,1-.27,4.76c-.3.57-.59,1.18-.12,1.79,1.68,2.15.24,3-1.52,3.8-.7.31-1.83.24-1.83,1.32s1.06,1,1.85,1.13a1.71,1.71,0,0,1,1.67,2,32.11,32.11,0,0,0,1,8.34,7.1,7.1,0,0,1-.31,2.67c-.5,3.55-1.18,7.09-.33,10.72.55,2.32-2,4.68-4.39,4.2a4.73,4.73,0,0,0-2.42.06c-1.91.63-3.33,0-3.77-1.94-.39-1.75-1.5-2.1-3-2.11-4.9,0-9.8-.07-14.69-.07-.83,0-1.9.21-2.13-.73-.59-2.48-2.56-2.74-4.52-3.21a2.29,2.29,0,0,1-2-2.52c.13-1.9-.87-3.42-1.62-5.22-1.11.95-2.36,3.3-2.77-.16-.05-.48-.18-.94-.72-1s-1.21.57-1.1,1c1.22,4.22-2,8.28-.36,12.51a2.43,2.43,0,0,0,1.57,1.64c3,1.11,4.06,3,2.14,5.59-2.34,3.15-.38,5.87-.07,8.63.18,1.61.71,3.29.75,5,.05,2,.39,3.67,2.91,3.74.81,0,1.52.59,1.3,1.42-.52,2,.81,1.8,2,1.78,1.47,0,2.91-.08,4,1.15.47.52,1.13.41,1.78.24s1.42-.48,1.85-.23c4.68,2.81,8.59-2,13.07-1.26,1.15.19,1.48-1.16,1.94-2,.84-1.56,1.67-2.83,3.79-1.59,1.28.74,2.13-.29,2.91-1.21-.54-1-2.3-.08-2.21-1.61s1.37-1.67,2.33-1.93c1.17-.32,1.69-.68,1.45-2-.18-1,.1-2.25,1.23-2.44,4-.68,3.65-4.32,4.32-6.8.32-1.17-1.18-3.09-.92-5.09.5-3.87-.45-7.84-.07-11.68.32-3.24-1.34-6.82,1.3-9.78a1.71,1.71,0,0,0,.19-2,10.12,10.12,0,0,1-.45-8.42c.34-1.06-.32-1.73-.67-2.53-1.32-3-.8-4.47,2.2-5.8,1.56-.7,1.68-2.07,1.51-3.46-.29-2.34.32-4,2.81-4.67a11.18,11.18,0,0,1-.43,6.13c-3.57,9.56-3.87,19.24-1.77,29.16,1.43,6.81.3,13.55-1.64,20.12a78.5,78.5,0,0,1-3.57,9.11c-2.46,5.61-7.07,8.69-12.62,10.85a39.21,39.21,0,0,1-13.26,2.59c-4.68.13-9.1-1.56-13.29-3.38-2.4-1-3.49-3.78-4.25-6.4a154.8,154.8,0,0,1-4.47-22.91,34.19,34.19,0,0,1,1.75-16.86,130.79,130.79,0,0,0,5.68-18.43c1-4.41.75-9,2-13.41s2.39-9.11,3.71-13.63a16.57,16.57,0,0,0-.14-9.67c-1-3.3-4.17-4.93-7.2-6.13a61.92,61.92,0,0,0-9-3.19,4.74,4.74,0,0,1-4.07-4.52c-.32-6.55-3.28-12.4-4.84-18.62a45.73,45.73,0,0,1-1-5.32c-1.13-9-1.75-18.09-3.79-26.87-1.89-8.1-1.71-16.33-3.05-24.43-1-6,.12-12.13-1.78-18A8.15,8.15,0,0,1,395.09,845.88Z" transform="translate(-313.45 -22)"/><path class="cls-1" d="M572.39,986.69a5.83,5.83,0,0,1-.46,2.64c-3.17,11.15-9.61,20.87-13.88,31.54-.22.57-.48,1.22-1.3,1.15-2.53-.49-3.54,1.17-4.43,3.07-2.13,4.58-5.07,8.7-7.28,13.24-1.61.62-2.45-.53-3.06-1.59-3.2-5.58-6.85-10.86-10.35-16.25a5.37,5.37,0,0,1-.7-2.31c-.62-6.67-2.2-13.23-2.17-20,0-2.8-.31-5.6-.48-8.41,0-.42.08-1-.54-1.06-5-.78-6.65-5.21-9-8.65-3.9-5.7-3.81-12.74-5.62-19.15-.62-2.18.3-4.68,1.11-6.88a4.2,4.2,0,0,0-1.34-5.09,12.38,12.38,0,0,0-1-.93c-5.05-3.5-6.08-8.73-6.13-14.34,0-5.45-.08-10.92,2.84-15.85a1.82,1.82,0,0,0,.26-1.8c-1.49-3.11-.35-6,.82-8.86a3.2,3.2,0,0,0,.07-2.86c-1.45-2.79-1.37-5.77-1.22-8.78,2.32.27,2.57,2.19,2.71,3.84s.49,3,2.09,4.08c1.9,1.24,1.51,2.55,0,4.32-1.78,2.06-3.67,3.89-2.81,7.53a18.83,18.83,0,0,1-.5,10.57c-.6,1.64.56,2.71.67,4.09.27,3.09-.67,6.07-.2,9.14.36,2.32.56,4.47,3.63,4.15.11,1.15-1.21,1-1.18,2a3.74,3.74,0,0,0,1.12.47c3.18.35,4.17,1.53,4.18,5.2,0,2.93,1.54,5.36-2.18,7.08-1,.47.36,4.27,1.71,4.55,1.55.32,1.81,1.1,1.63,2.53-.34,2.67.26,5.35-.07,8.07a3.22,3.22,0,0,0,2.3,3.81c2.09.65,1.92,2.95,1.88,4.89,1.94-.35,3.28-1.3,3-3.07-.46-3.58.74-7.45-1.71-10.72a2,2,0,0,1-.16-2.08,1.77,1.77,0,0,0-.41-2c-3.25-2.45-1.69-6.16-2.44-9.22-.68-2.84.66-2.73,3.31-3.22,3.87-.71,7.66.87,11.37-.34a12.37,12.37,0,0,1,6.44-.33,5.67,5.67,0,0,0,1.33.25c2.23-.07,5.24.95,6.45-1a14.92,14.92,0,0,0,2.46-9.84c-.26-1.86-.42-2.6,2-2.44a2.8,2.8,0,0,0,3.17-3.18c1.73.58,1.28,2,1.12,3.18a11.8,11.8,0,0,1-2.11,4.68c-2.24,3.48-2.55,7-1.62,11.17,2.38,10.51,8.6,18.86,14.53,27.42C571.41,982.81,573,984.32,572.39,986.69Z" transform="translate(-313.45 -22)"/><path class="cls-10" d="M373.89,578l1.09-.44c2.4-1.14,5-.69,7.44-.56,1.78.1,3.62-.14,5.48.89,4.19,2.34,7.09,5.33,8.32,10.14,1.61,6.33,4.51,12.3,5.52,18.8.8,5.14.51,10.34.25,15.5-.15,3.13-2.32,4.22-5.2,2.84-3.36-1.62-5.39-4.49-7-7.74-1.83-3.7-2.71-7.7-3.75-11.64-.25-.93-.23-2-1.41-2.62a11.25,11.25,0,0,0-.3,8,105.2,105.2,0,0,1,3.15,13.8,4.43,4.43,0,0,0,2.72,3.48c2.14,1,4.34,1.85,6.52,2.77,3.17,1.36,4.48,3.39,4.17,6.27-.33,3.13-2.51,5.89-5.59,6.21-5.69.6-11.48,1.2-16.5-2.63-2.17-1.65-5.23-1.72-7-4-.86-1.1-2.18-1.29-3.39-1.57-6.56-1.52-11.37-6-15.71-10.5-2.61-2.74-3.9-6.89-5.32-10.58-2.76-7.2-4.8-14.61-4.53-22.45.07-2,.34-3.95.53-5.93.11-1.16-.23-2-1.56-2,0-1.27,1.12-1.29,1.94-1.47,7.69-1.74,15.37-3.45,23-5.21C369.1,576.79,371.65,576.44,373.89,578Z" transform="translate(-313.45 -22)"/><path class="cls-11" d="M616,1040c.82-3.26.4-6.51,0-9.79-.44-4-1.13-8.11-.94-12.14.16-3.34-2.22-5.94-1.81-9.21.25-2,0-4,.26-6,.37-2.71-.47-3.28-3.15-2.74-11.78,2.39-22.84.19-33.15-5.71-4.33-2.48-4.34-3.24-2.68-8,.71-2.05,1.84-3.93,2.3-6.1.33-1.56,1.82-2,2.66-.91,2.73,3.38,6.67,3.44,10.33,4.09,4.52.8,8.75,3.15,13.53,2.53,2.15-.29,4.31-.5,6.46-.79,3.07-.42,4.6-2.21,5.3-5.26.87-3.78,1.11-7.65,2-11.41,1.42-1.82,3.21-2.68,5.48-1.88,1.95.68,2.81,2.57,2.62,5.46s-1.48,5.84-1.06,8.9c.15,1-.13,2.28,1.3,2.7.84,2.12,2.87,2.86,4.57,4,.7,2.14-.09,4.3.1,6.45.09,1,0,2,.12,3,.45,3.73,1.73,4.85,5.39,5.44a15.58,15.58,0,0,0,8.73-1,4.59,4.59,0,0,1,3.43-.26c2.71,1.26,9.5.07,11.51-2,.84-.86.52-1.89.35-2.83-.46-2.5-1.12-5-1.57-7.46-.32-1.78.18-3.19,2.17-3.33a81.38,81.38,0,0,1,12.78,0,1.84,1.84,0,0,1,1.37.79,22.39,22.39,0,0,0-2.75,10.38c-.27,4.74-2.53,6.78-7.14,7.73a126.31,126.31,0,0,0-15.49,3.8c-6.71,2.29-13.58,3.91-20.67,1.57-1.78-.59-2,.21-2,1.66a76.5,76.5,0,0,1,0,8.7c-.5,5.53-.22,11.31-3.92,16.05C620.82,1038.53,619.18,1040.71,616,1040Z" transform="translate(-313.45 -22)"/><path class="cls-6" d="M699.55,903.15c2.62,1.72,3.2,4.75,4.62,7.24a15.79,15.79,0,0,0,1.53,2.85c4.25,4.6,5.07,10.29,5.21,16.16a37.22,37.22,0,0,0,.91,8.35,6.2,6.2,0,0,1,.19,2.42c-1.43,9.78.35,19.55,0,29.31-.12,3.43-.73,6.83-1,10.25s-1.8,5.61-5,6.61-6.38,2-9.59,2.92a3.16,3.16,0,0,1-2.35-.48c-.15-2.69-.42-5.4-.39-8.07.1-7.26-.89-14.47-.65-21.73a40.93,40.93,0,0,0-.59-5.94c-.06-.53-.08-1.14-.74-1.31s-.82.29-1.06.67c-1.79,2.77-4.32,4.88-6.61,7.19a5.84,5.84,0,0,0-2,4.81c.38,4.5-1.33,8.75-1.6,13.17a1.19,1.19,0,0,1-.6.87l-3.86,4.87c-1.12-1.83,0-3.5.46-5.17,1.12-3.95,1.17-3.93-2.06-6.12-.5-1.19.16-2.12.73-3,1-1.62,1.94-3.27,2.79-5,2.73-5.54,5.4-11.07,9.76-15.63,2.1-2.18,1.7-2.79-1.26-3.28-6.34-1.05-12.8-1.49-19-3.24a43.44,43.44,0,0,1-9-3.11,3.32,3.32,0,0,1-.32-3.38,78.62,78.62,0,0,1,4.78-8.85,2.52,2.52,0,0,1,1.3-.95,2.67,2.67,0,0,1,2.36.25c3.7,2.64,8.06,2.5,12.25,2.87a81.5,81.5,0,0,0,11.37.71,4,4,0,0,0,3.46-2.11A23.12,23.12,0,0,0,697,909.71C696.3,905.7,697.1,904.27,699.55,903.15Z" transform="translate(-313.45 -22)"/><path class="cls-8" d="M440,159.8c-.09,3.8-2.36,7-3,10.65a12.16,12.16,0,0,0,2.7,10.63c8.09,9.55,18.37,16.39,28.73,23.15,7.39,4.82,14.15,2.83,20.88-1.36,2.61-1.62,5.32-3.07,8-4.62a3.72,3.72,0,0,1,2.6-.49c2.06.26,2,1.84,2,3.32-1,8.54-2.31,17-5.07,25.23-.09.26-.15.53-.23.79-.53,1.65-1,3.46-3.15,3.59s-2.9-1.53-3.74-3.06c-.61-1.11-1-2.32-1.71-3.38-1.5-4-4.69-6.57-7.77-9.24a4.73,4.73,0,0,0-3.54-.92c-4.28.14-7.61,1.61-9.8,5.53a28.24,28.24,0,0,1-3.59,4.42c-5.57,5.62-7.25,5.5-13,.09C443,217.22,437.56,208.57,429.9,202A12.28,12.28,0,0,1,428,199c-2.2-6.44-3.39-13-2.53-19.86.27-2.11-.8-4.39.85-6.35,1.39-1.61,1.72-3.72,2.64-5.55a43.73,43.73,0,0,1,5.14-7.88C436.58,156.22,437.94,156.26,440,159.8Z" transform="translate(-313.45 -22)"/><path class="cls-12" d="M500.44,196.86c.68-1.35-.45-1.76-1.24-2.27a43.44,43.44,0,0,1-13.88-13.5c-1.18-1.9-3.31-2.77-5-4.1-4.42-3.45-8.63-7.18-13.74-9.68A4.88,4.88,0,0,1,464,164q-1.16-4.89-2.17-9.81a8.28,8.28,0,0,1-.05-2.17,1.88,1.88,0,0,1,1.77-1.78,1.57,1.57,0,0,1,1.9,1.51c.36,5,4.5,7.07,7.7,9.76a9,9,0,0,0,6.58,2.11c5-.36,9.91.24,14.88.11,4.66-.13,8.1-2.64,11.48-5a20.16,20.16,0,0,1,11.83-3.89,91.25,91.25,0,0,1,13.75,1,10.7,10.7,0,0,0,2.94-.4c1.64-.22,2.94.12,3,2.15-1.22,3.47-1.92,7.25-5.48,9.35A2,2,0,0,1,530,167c-3.61-1.86-7.64-3-10.51-6.13a2.21,2.21,0,0,0-3.1-.47c-5.12,2.8-7.64,7.28-8.38,12.9a4.71,4.71,0,0,0,.78,3.13c2.1,3.3,3.31,7.05,5.33,10.4,1.63,2.71,2.64,3,5.16,1a13.59,13.59,0,0,1,4-2.2c1-.32,1.95-.61,2.74.37,2.83,4,1,10.8-3.27,13.11a14.26,14.26,0,0,1-8.65,2c-2.12.81-3.77-.74-5.63-1.2A49.42,49.42,0,0,1,500.44,196.86Z" transform="translate(-313.45 -22)"/><path class="cls-1" d="M500.44,196.86a3.62,3.62,0,0,1,2.89.15c3.44,1.81,7.33,2.41,10.81,4.08,2.68,2,5.9,3.32,8.48,5.26,5.18,3.88,11.23,6.08,16.58,9.63A116.31,116.31,0,0,0,553,224.45c4,1.93,7.19,4.87,10.73,7.33,2.14,1.49,2.83,4.5,3.69,7.09a44.42,44.42,0,0,1,2.32,17.9,4,4,0,0,0,.55,2.89,5.1,5.1,0,0,1-3,5.77,4.28,4.28,0,0,0-2,2.14c-2.87,6.71-5.45,13.5-6,20.87.41.73-.39,1.13-.48,1.72a11.05,11.05,0,0,1,0,1.29,11.29,11.29,0,0,1-.31,1.14l-.77-.89c-4.79-.43-8.92,2.37-13.53,2.82a1.29,1.29,0,0,0-1.11,1.36c0,.27,0,.54,0,.81.17,5.49.24,5.51,5.64,4.78,2.59-.35,5.21-.55,7.78-1.09,1.37,1.59.66,3.58,1,5.36.27,1.51.09,3.21.9,4.49,3.41,5.34,1.36,10.4-.51,15.53s-3.7,10.32-5.64,15.73c1.63,0,3.1-.84,4,.65a1.86,1.86,0,0,1-.2,2.27c-1.06,1.26-2.3.54-3.51.21-.9,5.25.47,10.23,1.31,15.26a14.34,14.34,0,0,1,1.63,11.79c-2.49,8-3.74,16.29-5.49,24.45-1.3,6-3.26,11.93-3.93,18.1a2.52,2.52,0,0,1-1.48,2.42c-2-.36-2-1.8-1.73-3.32a67.09,67.09,0,0,0,.65-15.05,16.55,16.55,0,0,1,.12-3.52c.18-1.1,1-1.95,2.14-1.35,2.11,1.08,1.61-.78,1.66-1.51.36-5.22.91-10.44.49-15.69a1.39,1.39,0,0,1,1.2-1.59c3.38-.33,3.33-3.09,3.52-5.3a21.84,21.84,0,0,0-1-7.49c-.34-1.22-.65-2.4-2.28-2.65a1.9,1.9,0,0,1-1.49-2.06c.13-2.46-.28-5.06,2.13-6.9,1.2-.92,1.11-2,0-3.22-2.84-3-2.67-5.91.19-9.06,1.88-2.07,2.49-4.81,3.5-7.31.38-.93-.34-1.73-.82-2.49a3.93,3.93,0,0,1-.67-3.83c.51-1.21,1.09-2,2.31-.71.61.64,1.34,1,1.54-.13.68-3.81,2.94-7.58.32-11.52-.71-1.05-1-2.34-2.69-2.26a1.5,1.5,0,0,1-1.28-.89c-2-3.21-4-3.79-7.64-2.25-3.16,1.34-5.14.22-5.57-3.07a3.14,3.14,0,0,1,1.41-3c1.5-1.2,1.93-2.14,0-3.52s-.69-3.22.13-4.62,2.18-1.52,3.34-.09c.3.38.72.69,1.14.38.6-.45.05-1-.07-1.46-.27-1.08-2-2.31-.17-3.24a2.74,2.74,0,0,1,4,1.29c.3.64.91,1,1.16.32.77-2,2.45-1.39,3.89-1.63a7.41,7.41,0,0,0,2.81-.89,1.55,1.55,0,0,0,.5-2.49c-1.2-1.68-1.42-3.51.63-4.94a1.36,1.36,0,0,0,.15-2.32c-1.4-1.44-1.06-2.44.81-2.83,1.12-.23,1.43-.88,1.62-1.85a19.75,19.75,0,0,0,.46-6.42c-.31-2.3.21-4.09,3.08-4.43,2-.23,3.95-5,2.82-6.74-1.46-2.18-2.13-4.24-.5-6.75a3.59,3.59,0,0,0,0-3.37c-1.4-1.67-1.43-3.31-1.23-5.27a2.41,2.41,0,0,0-1.91-2.63c-.77-.2-2-1-1.56-1.54,2.5-2.89-.41-2.21-1.63-2.91a23.68,23.68,0,0,1-3-2.7c-2.06-1.74-4.28-3-7.16-2.08a1.67,1.67,0,0,1-2.39-1.49c.16-3.64-3.08-2.65-4.2-2.43-2.08.4-2.61-.56-3.66-1.79-2.92-3.42-5.16-8.11-11.09-6.65-1.23.3-2.55-.11-2.46-1.73.18-3.31-2.07-2.92-4-2.55a4.12,4.12,0,0,1-3.57-.56c-.34-.26-.88-.81-.8-1,1.36-3.31-1-3.32-3.12-3.81-.59-.14-1.06-.94-1.52-1.5-1.34-1.62-4.59-2.56-6.38-1.81-1.21.52-.82,1.3-.18,1.9,3.46,3.31,4.54,7.38,4.24,12a11.77,11.77,0,0,0,3.7,9.75c.61.57.55,1.3.69,2,.25,1.37.55,2.58,2.42,2.71,1.34.1,1.86,1,1.47,2.58-.93,3.69-.14,4.63,2.95,6.54,2.31,1.43,1.75,4.28,1.64,6.58-.07,1.33-.57,2.71-.26,4,.38,1.58.86,3.23,3.2,2.83,1.73-.3,1.4,1,1.49,2.09.39,4.75-1.2,9.5.08,14.25.24.92.24,1.68,1.41,2a3.14,3.14,0,0,1,2.39,3.27c0,3.08,1.17,6.28-.82,9.21-.38.56-.09,1.21.26,1.79a4.59,4.59,0,0,1,1,1.91c.12,3.89.12,7.79.14,11.69,0,1.43-1.6,1.31-2.19,2.18-1.45-.36-1.33-1.57-1.33-2.62,0-10.3-1-20.45-4.44-30.25a7,7,0,0,1-.47-2.12c-.22-6.74-2.31-13-4.93-19.11-3.29-7.66-5.81-15.64-10-22.93-1.87-3.26-2.37-7-3.45-10.59-1.35-4.41-3.11-8.67-4.73-13,.15-1.3.38-2.64-1.18-3.34C500.05,197.46,500.25,197.16,500.44,196.86Z" transform="translate(-313.45 -22)"/><path class="cls-6" d="M545,1038.33c-.83-3,1.84-4.61,2.87-6.84,1.47-3.17,3.23-6.21,5-9.25,1.12-2,2.48-2.22,3.89-.22,2.81,4,4.38,8.7,6.49,13.09a3,3,0,0,0,3.28,2.07c11-.49,21.92-.87,32.89-1.31a3.47,3.47,0,0,1,2.47.92c.66,3.28.9,6.4-2.33,8.72a5.1,5.1,0,0,0-1.62,3.36c-.48,2.42-2,3.49-4.42,3.56s-4.52,0-6.79,0c-.87,0-1.8-.23-2.63.41.23,1.34,1.36,2.11,2,3.19,1.22,2.17.9,3.9-1.28,5-3.07,1.56-6,3.31-9,5a5.5,5.5,0,0,1-3.9.8,6.93,6.93,0,0,1-3.11-2.5c-2.64-3.09-5.23-6.22-7.84-9.33a5.43,5.43,0,0,0-4.69-2.08c-2.53.06-5.06,0-7.58,0a7.55,7.55,0,0,1-4.17-.93,2.24,2.24,0,0,1-1.06-2.7Q544.22,1043.84,545,1038.33Z" transform="translate(-313.45 -22)"/><path class="cls-6" d="M674.39,971.81c3.87.45,4.5,1.43,3.39,5.06-.66,2.13-1.24,4.29-1.86,6.44-.77,1,0,2.62-1.51,3.25-4.62,0-9.23.06-13.85,0-1.53,0-2.09.35-1.62,2.07.84,3,1.34,6.17,2.09,9.23a2.12,2.12,0,0,1-1.41,2.8,50.11,50.11,0,0,1-8.74,2.75c-1.56.29-2.66-.09-3.27-1.61-1.41-1.23-1.6-3-2-4.64-.21-1-.39-2-.59-2.92-1.34-6.35.32-6.32-8-6-1.52.06-3,.46-4.57.4a3.79,3.79,0,0,1-2.73-1c-2.76.21-4.56-.7-4.46-3.83-.76-1-.17-1.91.23-2.78a25.51,25.51,0,0,1,4.65-7.29c3.79-3.88,7.18-8.13,11.16-11.82a17.63,17.63,0,0,1,4.07-3.12c2.91-.26,4.11.58,4.37,3.38.22,2.43.41,4.87.62,7.31.15,1.78,1,2.46,2.61,2.28,5.77-.63,11.58-.34,17.36-.76C671.73,971,673.21,970.56,674.39,971.81Z" transform="translate(-313.45 -22)"/><path class="cls-13" d="M604,1047.74c-.58,4.21-1.1,8.49-3.17,12.27-1.65,3-1.51,6.65-3.91,9.45A48.85,48.85,0,0,1,578.19,1083c-4.43,1.81-8.62,4.11-13,6-4.9,2-10,3.5-15.23,3.29C543,1092,540,1089,537,1082c-1.18-2.72-3.27-5.33-2.73-8.66.85-1.92,2.09-1.87,3.73-.93,9.57,5.51,19.47,6,29,.5,7.54-4.37,15.57-7.83,22.85-12.62,4.21-2.77,7.72-6.27,9.16-11.37.38-1.34,1-2.61,2.55-2.87C602.89,1045.82,603.56,1046.62,604,1047.74Z" transform="translate(-313.45 -22)"/><path class="cls-1" d="M371.77,637c3.45.67,6.37,2.51,9.36,4.2,4.81,2.73,10,2.19,15.07,1.26,2.48-.46,4-3.27,3.9-5.92s-1.88-3.88-4.17-4.72-4.7-1.91-7-2.94a3.86,3.86,0,0,1-2.52-3.3,57.05,57.05,0,0,0-2.8-13.26,15.47,15.47,0,0,1,.57-11.49c3.27,2.14,2.91,5.86,3.87,8.92,1.5,4.79,2.84,9.6,6.86,13a13.35,13.35,0,0,0,2,1.44c2.91,1.67,4.19,1,4.27-2.32.19-7.8.53-15.67-2.3-23.1-1.86-4.92-3.26-10-5.09-14.9-.79-2.12-2.78-2.75-4.38-3.88-2.89-2-5.88-3.5-9.6-2-1.55.63-3.2-.21-4.8-.49-.1-1.48.63-2.32,2.07-2.23,2.08.14,4.17-.49,6.21,1,1.44,1,2.64-1.31,4.26-1.39.62,0,1.21-.75,1.82-1.14s1.45-1.28,2.44-.8c1.16.56,1.26,1.69,1.19,2.82-.13,2.16,0,3.81,2.57,4.92,1.86.79,1.17,3.63,1.69,5.51.39,1.41.24,2.37,2.26,2.42,2.23.05,2.9,2.07,1.27,3.58-1.05,1-1.19,1.7-.37,2.71a4.23,4.23,0,0,1,.92,4c-.44,1.85,1.2,2.67,2.59,3.37,2.63,1.32,2.41,2.17,1.9,4.82s-.76,5.13-2.33,7.44c-.48.7.36,1.9,1.19,2.54,2,1.54,2.22,3,0,4.52a2.2,2.2,0,0,0-.85,2.83c.69,2.39.76,4.57-2.6,4.92-1.11.11-.59.86-.4,1.42.7,2.06,1.65,4,1.48,6.31-.08,1,.62,1.31,1.48,1.61,1.45.5,1.67,1.89,1.56,3.13s-1.27,1-2.17,1.13c-1.72.17-3.19.48-3.16,2.81,0,1.44-1.16,1.62-2.4,1.36-1.84-.39-3.75-1-5.44.38-.62.48-.66.13-.92-.27-1.5-2.34-3.41-1.87-5.42-.77a5,5,0,0,1-7.54-2.87c-.66-1.94-2.57-.75-3.69-1.82,1.44,3.49.23,6.91.06,10.28-.09,1.77,1,3,.95,4.71-.06,2.88.07,2.91-2.06,4.8,1,.51,2,.95,2.86,1.45a5.11,5.11,0,0,1,3,4.82,15.88,15.88,0,0,0,.46,5.4,1.79,1.79,0,0,1-.29,1.82c-2.53,2.47-1.75,4.74.26,7,.61.71.27,1.57,0,2.35a11.18,11.18,0,0,0-.15,5.63c.31,1.88.49,3.46,2.94,3.81,1.34.19,1.67,4.48.63,6.41-.2.36-1,.68-.59,1,2.2,2,.9,4.74,1.47,7.07a2.73,2.73,0,0,0,1.76,2.25c.6.18,1.66.7,1.43,1-2.15,3,1.72,4.78,1.32,7.36-.13.89-.19,1.8-.35,2.68a1.9,1.9,0,0,0,1,2.31c1,.41,1.66.43.59,1.72-.79,1,.32,1,1.06.89,1.93-.39,2.08.65,2,2.2-.19,2.64-.47,5.31.4,7.92.52,1.57.66,3.08-1.32,3.82-3-8.79-6.7-17.36-8.21-26.66-.53-3.23-2.42-6.16-3.45-9.37-2.73-8.49-3.48-17.16-3.55-26,0-3.76-.34-7.42-2.22-10.79-1.61-2.89-1.66-6.13-1.67-9.28a28.9,28.9,0,0,0-1.81-8.71c-1.15-3.68-.22-7.33.49-11C371.61,638.27,371.68,637.64,371.77,637Z" transform="translate(-313.45 -22)"/><path class="cls-3" d="M699.55,903.15c-2.36,2.05-1.81,4.75-1.48,7.32A25.69,25.69,0,0,1,696,925.08c-2.38,5.26-5.63,5.76-10.19,5.33-4.41-.42-8.84-.63-13.22-1.19-2-.26-4.13-.62-5.76-2.18a3.91,3.91,0,0,0-2.74-1c-1.26-1.74-.28-3.26.47-4.81a7,7,0,0,1,3.66-2.71,22.69,22.69,0,0,0,9.31-7.72,33,33,0,0,1,3.9-4.52c2.23-2.1,1.53-5.22,3-7.64,1.76-2.93,2.88-6.23,4.33-9.35a8.66,8.66,0,0,1,4.8-4.58c.72,3.4,1.35,6.82,2.19,10.18C696.48,897.84,698.15,900.44,699.55,903.15Z" transform="translate(-313.45 -22)"/><path class="cls-2" d="M611.27,230.15c1.61-1.2,2.73.79,4.28.64a22.86,22.86,0,0,1,8.32.83,11.54,11.54,0,0,0,5.38-.1c4.63-1,6.26.26,7,4.94a53.9,53.9,0,0,1-.06,17,5.37,5.37,0,0,1-2.76,4.11,4.22,4.22,0,0,0-2.29,3.4c-.48,3.25-1.59,3.9-4.63,2.84-1.18-.41-2-.47-2.89.5s-2,1.19-2.69.42c-1.8-1.94-4.37-2.24-6.5-3.43C612.46,251,609.59,240.8,611.27,230.15Z" transform="translate(-313.45 -22)"/><path class="cls-1" d="M454.12,784.8c-1.82-.69-3.09-2.58-5.37-2.33a1.1,1.1,0,0,1-1.13-1.28c.39-1.65-.66-3.48,0-4.8,1.82-3.64.18-7.24.46-10.83.15-1.9-.64-3.92,1.16-5.64.82-.79-.64-1.92-.63-3a33.25,33.25,0,0,0-.92-9.1,1.24,1.24,0,0,1,1.55-1.63c1.88.51,1.88-.52,2.3-1.86a16,16,0,0,0,.51-7.75,19.84,19.84,0,0,1,.2-6.91c.46-2.53-.26-4.87-.44-7.28-.1-1.21-1-1-1.85-.9s-1.92.14-2.26-1,.56-1.35,1.21-1.85c1.73-1.33.42-2.67-.25-3.8-1-1.72-1.39-7.77-.33-9.27l.18-.21c2.69-2.81,2.55-3.6,3.07-8.22.22-2-.33-4.69,2-6.34.92-.65.7-1.79-.19-2.59-1.75-1.58-1.86-3.43-.91-5.44a1.72,1.72,0,0,0,.11-1.81c-1.11-1.58-.45-3.19,0-4.71s1.54-3,.14-4.55c2.27-2.7.16-4.75-.56-7.33-.8-2.89.68-6.33.34-9.58,0-.24.13-.68.29-.72,4.91-1.28,2.4-5.6,3.42-8.44.7-2-.65-4.38,1.39-6.11.43-.36.22-1-.13-1.5-1.45-2-1.06-4.13-.77-6.33.25-1.91-.58-3.77-.3-5.75.13-.87,0-1.8,1-1.89,2.5-.23,3-2,3.33-3.95.17-.87.69-1.68.92-2.55s.34-2,1.56-2.3c1.37-.3,2.24.54,3,1.5,1.59,2,2.72,4.4,4.83,6.06.85.67.4,1.85.38,2.84,0,2.8-.83,5.83,2.61,7.5,1.21.58.81,1.66.18,2.56a1.35,1.35,0,0,0,.08,1.75c.59.79,1.07.16,1.62-.12s1.15-.63,1.47-.46c2.52,1.31,2,4.06,2.73,6.21.47,1.46-.56,2.36-2,2.63-.46-2.49-1.26-4.53-3.94-5.71-2-.88-2.95-3-3.77-5.14-2-5.14-3-10.66-5.91-15.47a9.24,9.24,0,0,0-.74-.92c-1,4.09-2.66,7.82-2.75,11.58-.16,7.16-2.29,13.93-3.2,20.92-.78,6-.54,12.15-1.45,18.15-1.79,11.84-1.55,23.85-3.09,35.72a57.39,57.39,0,0,0,.77,17.61,65.86,65.86,0,0,1-1.07,27.23c-1.22,5.1.09,10.31-.39,15.46-.21,2.16-.45,4.33-.55,6.5-.14,3.07-.3,6.14,1.61,8.91C454.43,781.77,454.22,783.35,454.12,784.8Z" transform="translate(-313.45 -22)"/><path class="cls-11" d="M604,1047.74c-2.5-1.76-3.43-1.5-4.13,1.4-1.33,5.48-5.15,8.95-9.53,11.94-7,4.74-14.83,7.87-22.05,12.2-7.87,4.73-16.56,6.32-25.46,2.26-1.93-.88-4.22-.84-5.73-2.77-1-1.22-1.93,0-2.81.55,0-.09,0-.21,0-.26-2.68-2.48-1.68-5.29-.25-7.7,3.16-5.32,5.42-11.19,9.44-16l1.29,2a4.78,4.78,0,0,1-1,3,16.41,16.41,0,0,0-1.55,3.18c-1.46,4.75.34,7.29,5.23,7.1,2.91-.11,5.58-.38,8.06,2,1.7,1.62,4,.48,5.74-.82s2.86-1.8,4.85-.54c1.65,1,3.91.38,5.83,1,1.75.18,3.09-.78,4.51-1.58,2.6-1.47,5.2-2.94,7.85-4.31,2.26-1.16,2.52-2.06.91-4.13-1.1-1.4-2.23-2.77-3.85-4.78,4.49,0,8.24-.09,12,0,2.34.07,3.95-.31,3.73-3.19a3.64,3.64,0,0,1,1.55-3.33c3.3-1.94,3.73-4.86,3.37-8.2,1,.9.2,2.25,1,3.59,1.47-3.51,4-3.21,6.69-2C606.07,1040.54,605.21,1044.25,604,1047.74Z" transform="translate(-313.45 -22)"/><path class="cls-10" d="M526.06,186a9.73,9.73,0,0,0-6.32,2.62c-2.86,2.56-4.31,2.1-6.32-1.22s-3-7-5.21-10.13a7,7,0,0,1-.84-6c1.49-5.64,4.34-10,9.9-12.42.88-.38,1.69-.66,2.08.21,1.25,2.82,4,3.57,6.35,4.81,2.09,1.09,4.26,2,6.39,3a65.94,65.94,0,0,1-4,6.47c-1.94,2.7-2.11,5.89-2.06,9.09C526.07,183.65,526.06,184.83,526.06,186Z" transform="translate(-313.45 -22)"/><path class="cls-13" d="M679.78,978.44a12.32,12.32,0,0,1,.51-6.61,25,25,0,0,0,.64-8.36,5.28,5.28,0,0,1,1.73-4c2.53-2.79,6-4.79,7.45-8.49.37-.92,1.22-1,2.08-.84a1.55,1.55,0,0,1,1.29,1.54c.18,1.89.45,3.78.52,5.67.23,7,.4,14.11.59,21.17a28.45,28.45,0,0,0,.42,5.67,5,5,0,0,1-1,4.62,25,25,0,0,1-11.76-5A5.81,5.81,0,0,1,679.78,978.44Z" transform="translate(-313.45 -22)"/><path class="cls-1" d="M391.92,741.7c.92.55,3.68-1.36,2.53,1.92,2.27.22,1.45,3.9,4.2,3.7.88-.07.9.79.58,1.41s-.91,1.34-1.34,2c-1.24,2-.38,3.64,1.88,3.86a4.4,4.4,0,0,1,3.29,2.15c.74,1.21-.7,1.59-1.36,2.26s-1.24,1.4-.79,2.16c1.3,2.23.06,4.64.71,6.89a2,2,0,0,1-.71,2c-1,1.06-1.62,2.19-.7,3.64a1.28,1.28,0,0,1-.31,1.72c-1.11,1.11-1.16,2,.5,2.59.25.09.58.72.5.84-1.68,2.33.68,4.22.68,6.37,0,1.87.43,3.65-.9,5.44-1,1.37.16,3.29.39,4.76.36,2.3,0,4.47.08,6.69.16,5.09.19,10.18.44,15.26.09,1.81-1.42,1.55-2.35,2.26.52.89,2.16,1,1.85,2.36s-1.17,1.4-2.3,1.27c-.9-.1-.7.6-.52,1.11.68,2-2.56,1.7-2,3.68.39,1.44,2.33,1.94,2.11,3.64a56.42,56.42,0,0,0-.69,10.47c.07,1.28-1.2,1.93-2.49,2.1.24-6,.33-12.12.76-18.16.46-6.51-.21-13.05.77-19.53,1.32-8.74.7-17.55.3-26.26-.28-6,.86-11.64,2-17.36.34-1.72.25-3.07-1.23-4.36a5.72,5.72,0,0,1-2-4.85,2.56,2.56,0,0,0-.64-2A14.18,14.18,0,0,1,391.92,741.7Z" transform="translate(-313.45 -22)"/><path class="cls-1" d="M467.17,909.17c-2.53-1.88-2.26-4.66-2.16-7.27.12-3.06.46-6.12.82-9.17.16-1.36.58-2.74-.28-4-1-1.41.53-2.3.57-3.54a54,54,0,0,0-.82-8.91c-.28-2.13-.12-3.92,1.28-5.54.26-.3.81-.4.36-1-2.58-3.57-1.47-7.76-1.86-11.68-.35-3.43-1.06-6.85-.43-10.34.17-.9-.84-.81-1.42-.64-2.09.62-2.65-1-2.4-2.2.33-1.65.27-3.35.9-5s-.41-3.85-.44-5.87c0-1.39-.6-2.93-.75-4.47s-.51-3.23-2.71-3.48c-.91-.1-1.85-1.11-1.47-2,1.18-2.71-.54-5.56.68-8.27.77-1.73,0-2.83-1.79-3.85-2.36-1.33-3.2-4.05-3.28-6.62a55.34,55.34,0,0,0-.08-5.9,6.33,6.33,0,0,1,.65-3.71c.48-1,1.43-1.61.11-2.81-.73-.68.58-1.53.8-2.28a33.6,33.6,0,0,0,.71-5.35c.72,2.77.35,5.6.35,8.39a31,31,0,0,0,2.18,12.52c4,9.34,4.77,19.5,7.22,29.23,3.25,12.88,3.79,26,5,39.09a52.28,52.28,0,0,1-.27,12.75c-.9,5.89-.69,11.76-.84,17.64C467.74,906.35,468,907.83,467.17,909.17Z" transform="translate(-313.45 -22)"/><path class="cls-1" d="M504.19,809.88a2.88,2.88,0,0,1,2,4c-1.4,2.92-.64,5.75-.26,8.51.65,4.62.28,9.22.45,13.83.06,1.48-.3,3.19,2.3,1.84,1.22-.63,2,.47,1.74,1.81a7.42,7.42,0,0,0,.37,4.51c.72,1.73-.06,2.82-1.88,3.05-1,.12-2.15.07-2.16,1.45a2.45,2.45,0,0,0,1.43,2.4c2.58,1.29,2.85,2.82,1,5.18-.61.79-.88,1.44.24,1.91s1.5,1.13,1.15,2.13c-1.52,4.29-.69,8.65-.22,12.92.23,2.15-.3,4.32.4,6.41.38,1.13.37,2.59,2.42,2a1.29,1.29,0,0,1,1.62,1.89c-1.06,1.91-.35,3.83-.52,5.72-.07.87-.11,2-.85,2-2.9,0-3.29,2.79-5,4.11a103.79,103.79,0,0,1-1.73-22.94,20.67,20.67,0,0,0-.27-3.77c-2.77-18.5-3.26-37.12-2.89-55.78A20.64,20.64,0,0,1,504.19,809.88Z" transform="translate(-313.45 -22)"/><path class="cls-1" d="M491.71,716.07c3,.74,2.44,3.38,2.38,5.3-.1,2.82,0,5.4,1.61,7.84,1,1.47,1.95,2.89.79,5-.94,1.68.44,3.2,2.26,2.92,1.6-.24,2.95,1.54,2.38,3.58-.43,1.58.06,2.65.67,4,1.22,2.81.17,5.8-.14,8.71-.12,1.07-.56,2.1-.67,3.17-.2,2.07.92,3.12,2.92,2.89,1.76-.19,2.24.13,2.31,2.11.1,3,.42,5.93-.94,8.77a2.55,2.55,0,0,0,.14,2.09,10.44,10.44,0,0,1,.83,7.92c-.57,2.27,0,4.22-.05,6.27-.13,5.52,1,11.06-.24,16.6-.41,1.84-2.43,3-1.77,5.18-1-3.13-.16-6.3-.1-9.44.11-5.74-.31-11.33-2.62-16.7a11.52,11.52,0,0,1-.23-9c.62-1.6,1.11-3.25,1.69-4.87.9-2.54,2.12-4.55-1.61-6.62-3.14-1.74-2.87-5.95-2.41-9.46a5.53,5.53,0,0,1,.43-1.57c1.51-3.3.94-5.76-2-8.2-2.69-2.19-3.26-5.65-4-9.13-.68-3.28-.94-6.52-1.35-9.79A37.81,37.81,0,0,1,491.71,716.07Z" transform="translate(-313.45 -22)"/><path class="cls-1" d="M373.89,578c-6.08-.4-11.72,1.76-17.54,2.92-4.87,1-9.7,2.14-14.57,3.1a17.13,17.13,0,0,0-1.88.2c-3.47.74-5.25-.39-5.64-4-.29-2.68-.15-5.41-.2-8.12,2.75.18,2.94,2,2.53,4.08a8.87,8.87,0,0,0-.11,4.28,1.28,1.28,0,0,0,1.35,1.11c.73-.11.51-.82.61-1.32s.06-1.24.39-1.53c1.35-1.24,1.6-2.19.12-3.67-1-1-.77-2.42.93-2.95a18.52,18.52,0,0,1,3.15-.83c1.15-.15,2.2.47,1.82,1.67-.55,1.71.45,3.16.31,4.81s2,2.86,4.62,2.25c3.34-.78,7.14-.59,9.37-4.11a1.53,1.53,0,0,1,2.41-.08c1.56,2.06,3.11,1.16,4.75.28C369.39,574.41,372.4,575.18,373.89,578Z" transform="translate(-313.45 -22)"/><path class="cls-1" d="M478.07,646.26c1.93-.09,2.44,1.23,2.69,2.76a10.22,10.22,0,0,1-.64,4.81,3.23,3.23,0,0,0,2.05,4.36c1.9.79,2.63,1.69,2.28,3.88a4.77,4.77,0,0,0,2,5.17c2.48,1.69,3,4.46,2.35,7.26-.73,3.08.62,5.87.87,8.8.09,1.14,1.53,1.68,2.39,2.47,1.83,1.68,1.63,2.72-.67,3.62-1.11.44-2.2.89-2.5,2.24-1.43-6.34-2.52-12.74-4.33-19a41.81,41.81,0,0,0-4.66-11.22c-1.38-2.15-1.63-4.58-1.76-7C478,651.69,478.1,649,478.07,646.26Z" transform="translate(-313.45 -22)"/><path class="cls-1" d="M471.66,958.27c-.65-.09-1.66-.4-1.49-.9.78-2.29-1.5-4.65.24-6.84.06-.07.18-.18.17-.21-1.53-2.8.85-3.34,2.44-4.56s.66-4.64-1.1-5.64c-2.84-1.62-2.86-1.63-.9-4.44a.79.79,0,0,0-.13-1.18c-.39-.36-.91-.59-1.31-1-1.31-1.22-5,1.05-4.36-2.73.36-2.06-1.2-3.79-.35-5.85.32-.79-.26-1.92-.36-2.91-.13-1.37-.36-2.83,1.63-3.12a8.4,8.4,0,0,1,.61,4.25c-.06,4,2,6.79,5.13,8.92a8.71,8.71,0,0,1,3.91,6.8,18.3,18.3,0,0,1-1.85,10.79C472.47,952.39,472.54,955.45,471.66,958.27Z" transform="translate(-313.45 -22)"/><path class="cls-1" d="M489,692.07a5.06,5.06,0,0,1,2.68,4.69c0,4.71,1.36,9.21,1.89,13.84.22,2-.12,3.11-1.88,3.84C490.44,707,488.42,699.7,489,692.07Z" transform="translate(-313.45 -22)"/><path class="cls-1" d="M471.54,974.59c-2-.5-2.88-1.8-2.45-3.76a4.53,4.53,0,0,0-.34-2.6,2.6,2.6,0,0,1,.08-2.57c.94-1.24,1.53-2,.28-3.73-1.08-1.52.63-2.86,2.49-3.16C469.87,964,471.84,969.32,471.54,974.59Z" transform="translate(-313.45 -22)"/><path class="cls-1" d="M466,917.32c-1.35-.76-2-1.75-1.08-3.27a1.65,1.65,0,0,0,.09-1.54c-.92-2.15.44-2.85,2.12-3.36A21.58,21.58,0,0,1,466,917.32Z" transform="translate(-313.45 -22)"/><path class="cls-1" d="M472.07,981.68c-3.54-1.29-3.69-3.24-.48-6.14A16.31,16.31,0,0,1,472.07,981.68Z" transform="translate(-313.45 -22)"/><path class="cls-14" d="M613.87,160.77c.66.27,2-.3,1.93.75-.07,1.5-1.66.74-2.52,1.13a6.91,6.91,0,0,1-1.3-.19c-1-.32-2.6-.54-2.27-1.67.44-1.5,1.53.12,2.36.17A6.3,6.3,0,0,0,613.87,160.77Z" transform="translate(-313.45 -22)"/><path class="cls-1" d="M373.29,555.9a46.81,46.81,0,0,1,1.58-5.5,14.25,14.25,0,0,0-.54-11.08,4.1,4.1,0,0,1-.28-3.44,18.12,18.12,0,0,0-.11-11.68c-1.13-3.46-1.19-7.27-1.67-10.93-.11-.82-.08-1.69-.92-2.13-2.2-1.15-2.39-3-1.79-5.09.4-1.42.79-2.82-.37-4.1-.06-.06-.11-.2-.08-.25,1.69-2.79-.57-5.59,0-8.29a12.51,12.51,0,0,0-.39-5.85c-.62-2.55.82-6.42,2.93-7.7a1.73,1.73,0,0,1,2.61,1.08,4.32,4.32,0,0,0,2.64,2.5c1.68.76,3.05,1.88,3.26,4,.11,1.06.49,2.1,2,2.16.78,0,1.12.85,1.44,1.5a6.27,6.27,0,0,0,3.16,2.89c.49.23,1.3.48,1.35.82.69,4.57,5.41,5,7.94,7.71,1.25,1.32,3.31,1.9,4.5,3.6.56.81,6.39-.18,7-1,1.21-1.54.05-5.64-1.85-6.07-1.55-.35-2-1-1.47-2.48a5.34,5.34,0,0,0-.2-2.93,4.56,4.56,0,0,1,4.2-5.52c3.16-.18,6.58-.81,9.42-.24,3.25.65,6.9.38,10,2.87,1.94,1.54,5.36,1.58,8.12,1,3.93-.76,7.73.47,11.59.38.44,0,.9.28,1.33.25,1.12-.08,2.73.65,3.24-.5s-1.46-1.48-1.81-2.32c-1.16-2.84-3.42-3.87-6.13-4.47-.33-.08-.62-.62-.81-1-1.17-2.44.9-8.49,3.34-9.77.55-.29,1.16-.42,1.11-1.3a1.74,1.74,0,0,1,2.77-1.71c3.14,2.14,6.31.54,9.34.26,2.57-.24,4.87.92,7.35.6.44-.06,1.16.19,1.31,0,1.83-2.52,4.54-.92,6.78-1.38,3.16-.64,6.11-1.27,8.22-4a1.68,1.68,0,0,1,1.2-.5c1.61,0,2.68-.29,2.23-2.29a1.74,1.74,0,0,1,1.06-1.78c1.66-.91,3.54-1.14,3.76-3.95.11-1.49,3.05-.83,4.67-1.16,4.06-.83,5.95,1.07,5.17,5.1-.67,3.49.24,6.78.9,10.05,1.32,6.57.26,12.95-1,19.33a10.32,10.32,0,0,0,.17,6.1c1.07,2.7.17,5.56.26,8.35a1,1,0,0,1-1.11,1c-2.25-.45-2.23,1.27-2.46,2.58-.65,3.65-1,7.36-2.57,10.79-.48,1.06.07,1.85.68,2.72,1.21,1.75.59,3.76-1.33,4.84-.38.21-.93.45-1,.79-1.16,3.88-4.07,6.88-5.29,10.72-.17.54.19,1.23.14,1.84-.12,1.24.66,3.63-2.14,1.91-.41-.25-.85-.11-.85.23,0,2-1.92,3.41-1.52,5.66.3,1.62-.23,3.39-.42,5.09a1.28,1.28,0,0,1-1,1.15c-1.79.31-3,1.14-3.35,3a1.06,1.06,0,0,1-.46.64c-4.39,2.6-5.56,3.69-8.9,8.3-.2.28-.53.73-.76.7-2.58-.26-3.63.58-3.17,3.39.14.87-1.31.69-2,.18-1.42-1.11-2.58-1.17-3.6.5a1.44,1.44,0,0,1-1.38.68c-5.7-.14-11.37.77-17,.8-7.68,0-15.38-1.09-23.05-.89-3.9.11-7.73-1.33-11.66-.16-1.48.44-3.16.2-3.24-2.12,0-1.2-1.23-1.19-2-1.49-1.95-.73-4.15-.44-6-1.44-.22-.11-.69-.18-.76-.08-1.63,2.39-4.22.18-6.15,1.29a1.53,1.53,0,0,1-2-.5c-.58-.91.23-1.26.81-1.69,1.31-1,.71-1.77-.41-2.16-1.85-.63-3.66-1.44-5.77-.5-2.5,1.11-3.65.49-4.33-2.12-.23-.89-.58-1.47-1.52-1.65C373.94,559.68,373.48,558,373.29,555.9Z" transform="translate(-313.45 -22)"/><path class="cls-6" d="M501,201.1c4.4,4.89,5,11.34,6.88,17.21a44.35,44.35,0,0,0,3.55,8.48c3.36,5.83,5.29,12.3,7.82,18.5,2.24,5.52,5.11,10.89,5.34,17,.15,4.06,1.49,7.8,2.52,11.66a94.47,94.47,0,0,1,2.9,24.5,6.87,6.87,0,0,0,.32,3.21c0,.32,0,.64,0,1,.74,10.8-1.34,21.29-3.84,31.67a54.11,54.11,0,0,1-10.49,21.6,31,31,0,0,0-5.58,11.14,33.93,33.93,0,0,1-3.61,8.78c-3,4.93-4.5,10.47-6.53,15.79a39.32,39.32,0,0,0-2.16,11.44,6.2,6.2,0,0,1-.54,2.63c-4.76-7.91-6.56-13.16-7.67-22.33a54.08,54.08,0,0,1-2.09-18.25c.65-9.78-.11-19.65.76-29.37.93-10.46.66-20.87.9-31.3a13.44,13.44,0,0,1,.27-3c1.31-5.24.25-10.48.05-15.71,0-.45-.21-.9-.18-1.35.71-13.35-3.33-26-5.35-39-1.11-7.06.26-13.72,2.83-20.23a2.55,2.55,0,0,1,1.37-1.61A23.39,23.39,0,0,1,491,228c.44,1.12,1.14,2.15,2.57,2s1.61-1.29,1.92-2.33a121.84,121.84,0,0,0,5-24A22.07,22.07,0,0,1,501,201.1Z" transform="translate(-313.45 -22)"/><path class="cls-11" d="M578.92,619c0,.9,0,1.8.08,2.7.15,1.48.1,2.9,2.15,3.51,1.64.49,1.5,2,.45,3.29-.58.7-2.19.26-2.07,1.72.13,1.74-.64,3.59.55,5.22a3.28,3.28,0,0,1-1.11,3.18l.06,2.64c-1.91,1.12-1.62,2.28,0,3.45V647l2.69-1.26a1.08,1.08,0,0,1,1.7.06c-.26.4-.78.53-.75,1.26.12,3.37-.93,4-4.17,2.4v2.18c-1,1.32-2.86,2.63,0,4,.19,2.15-.59,4.38.5,6.47.47,1.17,0,2.2-.49,3.23l-.57,1.1c-1.11,1.6-3.39.87-4.83,2.31,1.27.95,2.67-.54,3.64.52.83.91,1.8,1.81,1.1,3.25-.46,1.87-1.39,3.79.59,5.4.81,1.11.92,2.46-.28,3.06-2.2,1.08-1.12,2-.18,3.09.15,4.34.85,8.67.4,13-.66.54-1.77.07-2.33,1.11,1.14.8,1.65-.58,2.47-.67,1.28,2-.37,4.53,1,6.55a.77.77,0,0,1-.06,1.16c-.44-.18-1-.28-.94.38,0,2.21-.92,4.33-.55,6.57-1.53,1.73-1.53,1.73,0,3.46-.67,1-.83,1.89.27,2.83,1.27,1.09,1,2.24,0,3.5-1.32,1.57-1.66,3,.68,4.28,1.66.87,1.68,2.81.06,3.29-1.79.55-1.56,1.66-1.57,2.9a15,15,0,0,1,1.14,8.08c-1.59,1.57-2.68.63-3.68-.73-.32-.44-.61-.9-1.26-.83a.37.37,0,0,0-.32.36c-.07.69.49.88.94,1.13,1.63.92,2.72,2.5,4.29,3.49.27,1.32-.81,3,1.12,3.86a2.77,2.77,0,0,0,2.15,3.23c0,.32,0,.64,0,1-.66,1.06-1.7,1.75-2.45,2.76a4.46,4.46,0,0,0-.84,3.95l-1.08,3.69c-1.26,1.5-1,2.8.53,3.92-.59,1.07.19,2.18-.06,3.26-1.43.2-2.87.32-3.12,2.25-.12.91-.91,1.27-1.75,1.49-.44.12-.94.33-.7.91s.71.43,1.16.28c1.43-.5,2.69-1.56,4.35-1.22.05,2.79,0,5.58.17,8.37.12,2,.8,3.74,3.45,3.16a.35.35,0,0,1,.3.42c0,.19,0,.38,0,.57-.6.81-1.77.27-2.41,1-.12,1.06,1.14,1.12,1.3,1.93-2.66,1.57-2.75,2.75-.36,4.77.87.73,1.42,1.95.57,2.57-2.45,1.79-1.2,4-1.05,6.11.12,1.88.48,3.75.74,5.62-2.17,1-3.07-1.27-4.68-1.9.27,2.56.94,3.11,4.66,3.94,0,.93.07,1.86.1,2.79-.84.81-3,0-2.87,1.41.09,1.66,2,0,2.87.81.11,1.18-.5,3,2,1.67a2,2,0,1,1,.58,3.71c-2.18-.45-2.2.62-2,2.14-1.11.71-2.39,1.24-2.52,2.85-.06.83-1.42,1.73-.54,2.34s1.35-.76,1.9-1.37c.83-.93,1.58-1.2,2.23.16l.49,2.69c-2.25,2.79-2.18,3.18.79,4.06,1.27.89,1.75,2.33,2.52,3.57a4.17,4.17,0,0,0,0,.5c-.95,1-2.27,1.7-2.74,3.13,0,.39,0,.78,0,1.17-.41,1-1.66,2.06-1.83.63-.38-3.23-2.75-2.83-4.65-3.43-.57-.18-1.19-.56-1.94.18,1.44.93,3.09,1.27,4.51,2.06,2.31,1.28.51,3.08.91,4.63,1.66.29,2.86-2.51,4.63-.66-1.87,1.36-1.17,3.28-.93,5a56.86,56.86,0,0,1,.94,9.11c-3.07-1-6.48-1.23-8.67-4.2,1.79,3.24,1.79,3.24-1.44,4.92,5.1-2.32,8.34,1.71,12.3,3.26-1.6.48-2,1.6-1.56,3.09a7.64,7.64,0,0,1,.32,3.42,1.71,1.71,0,0,1-.8.13c-1.06-.09-2.47-.5-2.67,1s1.38,1.09,2.22,1.44,1.59.42,1.95,1.3c.35,1.45-1.14,3.38,1.1,4.35a3.53,3.53,0,0,1-1.08,3.12c-1.19,3.76-1.22,7.69-1.71,11.56.15,1.4.16,2.86,1.59,3.72-3.07.7-3,2.85-2.51,5.26.51,2.64.73,5.34,1.7,7.89.36.93.67,1.94-.32,2.72s-1.81-.1-2.63-.57c-2.59-1.23-3.19-3.81-4-6.15-2.77-7.67-4.91-15.54-7.46-23.28A86.65,86.65,0,0,1,567.64,861a80.13,80.13,0,0,0-1.11-11.08c-1-4.51.63-9.1-.64-13.51-2.41-8.37-2.41-17-3-25.56a9.19,9.19,0,0,0-1-3.35c-.14-3.53.69-7,.89-10.49.08-1.54-.07-3.11.11-4.58.77-6.63-1.94-12.68-2.84-19-.47-3.24-.14-6.51-.23-9.77-.13-4.79.45-9.62-.47-14.37-.34-1.79,1.31-3.25.52-5a.38.38,0,0,0,0-.41,19.67,19.67,0,0,1-1-11.44,36,36,0,0,0,.65-11.61,16.62,16.62,0,0,1,.08-4.34c.95-7.46.92-15,1.79-22.48.17-1.46.22-2.9,1.14-4.12l.06-1.07a6,6,0,0,1-.28-3.18c1.23-10.84,2.17-21.71,2.93-32.59.09-1.28.12-2.54,1.11-3.52l.06-4.77c-1.23-8.83-2.42-17.67-3.3-26.55-.3-3-.51-5.94-.55-8.92,0-2-.44-4,1.73-5.33.55-.33.72-1.42-.13-1.46-3-.13-2.94-2.53-3.6-4.39-.43-1.18-1-2.35-.72-3.68.43-1.11,1.44-.9,2.31-1a4.34,4.34,0,0,0,2.29-.75c.44-.34.84-.78.44-1.35s-.82-.26-1.24-.1A8.67,8.67,0,0,0,561,593c-.49.44-1,.79-1.63.09-1.46-2.62-1.13-5.43-.86-8.23.32-3.34,1.11-6.61,1.47-10a15,15,0,0,0-1.5-8.69c-1.26-2.48-2-5-1-7.83.72-1.89-.8-3.45-1.17-5.19,0-1.22.94-1.47,1.83-1.62a24.51,24.51,0,0,0,8.85-3.37,3.92,3.92,0,0,1,1.8-.59,1.38,1.38,0,0,1,1.24.41c.41.53.11,1-.2,1.49a9.94,9.94,0,0,1-3.21,2.47,12.28,12.28,0,0,0-4.47,3.9c-1.15,2-.72,3,1.44,3.65s4.5,0,6.74-.19c1.4-.11,2.84-.89,4.18.21a140.55,140.55,0,0,0,2.2,17.95c-.36,1.46-.65,2.92.41,4.23.14.8.13,1.69,1.31,1.73s2.11.54,2.19,1.91a1.7,1.7,0,0,1-1,1.8,2.33,2.33,0,0,1-3-.66c-.07-.08-.28,0-.56-.09.32,2.21-.74,4.6,1.21,6.48a17.71,17.71,0,0,1-.64,3.76c.19,2.15-.84,4.62,2.07,6,.95.45.58,1.93-.3,2.53-1.28.89-1.2,2.08-1.18,3.33-.39.92-1.37,1.13-2,1.72-1.24,1.1-2.32,1.26-3.24-.47-1-1.91-2.57-1.44-4.42-.76,1.88,2,4.37,2.49,6.43,3.62,1.08.59,2.26-1.51,3.76-.76.34.71,0,2,1.48,1.71s2.93-.21,2.81,1.71-1.72,1.68-3.1,1.5c-.66.64-1.72.22-2.49,1C577,618.86,578.27,618.36,578.92,619Z" transform="translate(-313.45 -22)"/><path class="cls-3" d="M544.65,416.64c2.37-11.37,4.72-22.76,7.12-34.13a93.4,93.4,0,0,1,2.92-10.94c1.08-3.12,0-6.39-.49-9.57-.11-.7-.19-1.41-.28-2.12,1.87,1.21,3.44.5,4.87-.83a41.7,41.7,0,0,1,6.55-5.22c1.13,1,.89,2.3.7,3.55a134.44,134.44,0,0,0-1.32,20.05,39.13,39.13,0,0,0,5.81,20.93c2.11,3.44,2.57,7.3,2.92,11.19-2,3.79-4,7.64-7,10.58-6.78,6.62-11.33,14.74-16.29,22.6a13.55,13.55,0,0,0-1.41,3.81c-.2.75,0,2-1.51,1.72a23.17,23.17,0,0,1-2.34-13.61c.25-2.09,1-4.14-.42-6.18-.64-.92-.27-2.1.21-3.12a.63.63,0,0,0,0-.52,6,6,0,0,1,0-6.55C544.62,417.73,544.64,417.19,544.65,416.64Z" transform="translate(-313.45 -22)"/><path class="cls-1" d="M544.69,425.35a22.3,22.3,0,0,1,.89,7.74c-.37,5.23.82,10.2,2.22,15.16,1.44,1.16,1.4,2.91,1.49,4.46a51.66,51.66,0,0,0,2.4,11.88c.79,2.64,1.78,5.34.46,8.14-5.42,1.57-8,6.2-10.88,10.4a79,79,0,0,0-13.44,35.72c-.85,4.53-1.31,9.12-2.09,13.65a2.8,2.8,0,0,0,1.8,3.46c3.38,1.47,6.67,3.19,10.44,3.62,2.34.27,4.49,1.34,6.78,1.86A2.73,2.73,0,0,1,547,543.6c.24,1.19-.17,2.34-.19,3.52-.06,3.59,2,5.59,5.63,5.28,1.51-.12,3-.72,4.47.31,1.74,2.07,2.44,4.41,1.32,6.94a2.84,2.84,0,0,0,0,2.82c4.11,6.84,3.15,14.09,1.66,21.34a25.44,25.44,0,0,0,.15,9.45,1,1,0,0,1,.44.62c.65,2.25,1.31,4.5,2,6.76.21.73.34,1.39,1.41.73a1.54,1.54,0,0,1,2.48.69,2.24,2.24,0,0,1-1.29,3c-1.6.47-1.44,1.33-1.43,2.58.07,9,1.69,17.81,2.57,26.71.35,3.46,1.56,6.93.41,10.46-.92-1-2.24-1.69-1.48-3.4a1.32,1.32,0,0,0-.82-1.78c-1-.46-.94.47-1.15,1s-.44.61-.84.4-.69-.73-.37-1.13c1-1.22.65-2.13-.51-3-.13-.09-.28-.37-.23-.46,1.47-2.6-.7-5.52.71-8.08.43-.77.79-1.32.11-2.17-1.62-2-1.19-4.23-.38-6.39a4.66,4.66,0,0,0,0-4c-.9-2-.38-4.6-.22-6.81s-1.13-3.61-1-5.5c0-.15-.19-.44-.26-.43-4.25.78-1-2-1.4-3-.94-2.09-1.85-4.19-3-6.19-.53-.94-.92-1.69-.36-2.74,1.93-3.65,2.08-7.63,2-11.62a4.6,4.6,0,0,1,.3-2.36c.32-.66.59-1.22-.12-1.94-1.65-1.67-.86-3.29.44-4.71.38-.42,1.06-.94.63-1.26-1.82-1.35-1.43-4.66-4.48-4.91-1-.07-1.86-.8-1.57-1.84.43-1.52-.32-3.62,2-4.37.76-.25,2.42.09,1.84-1.6-.5-1.46-1.75-1-2.75-.62-1.55.66-2.87.06-4.14-.63a3.42,3.42,0,0,0-2.57-.56c-2.72.69-3.41-1.31-3.21-3.06.33-2.85-.86-5.09-2.16-7.25-1.12-1.88-3.58-2.09-5.35-2.1-2.5,0-5-2-7.65.15-.86.69-3,0-2.08-1.79s-.33-2.1-1.38-2.23c-2.44-.31-4.25-.83-2.68-3.86.29-.55-.38-1-.42-1.5-.2-2.21-1-4.51.77-6.49a2.19,2.19,0,0,0,.35-2c-.47-2.9-.87-5.8-1.22-8.72-.15-1.22.76-1.58,1.75-1.55,1.4,0,1.82-.62,2-1.93.35-2.32,1-4.6,1.43-6.91a7.22,7.22,0,0,0-.62-4.22c-.95-2.37-.15-3.52,2.45-3.56,1.13,0,1.34-.58,1.56-1.44.89-3.39,1.72-6.79,4.86-9a2.35,2.35,0,0,0,.63-2.94c-1.06-2.86-.48-3.85,2.4-4.87,2.73-1,3.85-3.31,5.44-5.52s.24-5.45,3.6-6.63c1.36-.48.47-2.89-1.28-3.15-2.28-.34-3.19-1.6-2.13-3.58,1.87-3.47,2-6.75-.14-10.09a1.71,1.71,0,0,1,0-2.07c1.57-1.72.91-3.35.28-5.25a14.4,14.4,0,0,1,.16-9.19c.39-1.2,2-3.25-.65-4.65C542.14,428.48,542.82,426.36,544.69,425.35Z" transform="translate(-313.45 -22)"/><path class="cls-1" d="M562.65,830.39A3.84,3.84,0,0,1,563,833c-1.25,10.35-1.33,20.79-2.34,31.15a31.5,31.5,0,0,0,2,14.15,33.9,33.9,0,0,1,2.1,13.36,14.35,14.35,0,0,0,1.32,6c3.83,9.71,1.5,18.71-3.76,27.15a27.94,27.94,0,0,0-4,8.83c-.94-.1-1.82-.67-1.55-1.52,1-3.15-.46-6.48.9-9.59.37-.85.65-1.47,1.65-1.43,1.83.08,2.46-1,2.24-2.58s.54-2.32,2-2.69c-2.78-2.28-2.64-3.23.62-4.61,1.28-.54,1.67-1.84,2.64-2.66,1.41-1.19-.56-1.93-.74-3-.67-3.87-2.79-7.08-4.75-10.37-1-1.65.46-4.66,2.48-5.49-1.23-.68-2.71-1.22-1.1-2.93.61-.65-.35-1.3-.57-2a82.06,82.06,0,0,0-3.89-10.66c-1-2-2-5.07-1.34-7.11.92-2.87,1.5-5.19.5-8.2-.52-1.55.38-3.59-.21-5.61a4.12,4.12,0,0,1,1.74-4.79c1.26-.75.4-1.2-.34-1.7-2.71-1.85-2.66-7.29.23-9a2.65,2.65,0,0,0,1.67-2.72c0-.94,0-1.89,1.09-2.27C562.79,832.43,562.55,831.35,562.65,830.39Z" transform="translate(-313.45 -22)"/><path class="cls-1" d="M562.68,807.66c-.21.74,0,1.59-.55,2.24-2.46-.74-2.17-3.29-3.19-5-.25-.4.12-.82.72-.81,2.31,0,2.31-2,1.89-3-1.12-2.64.27-5.13,0-7.7-.16-1.44-1.07-2.92-.19-4.51.37-.67,2.09-.92,1.25-1.63-1.62-1.38-.66-3.82-2.8-5-4.12-2.34-3.65-2.42-2.28-7,.58-1.93,1.1-4.53-.13-6.72a3.73,3.73,0,0,1-.27-3.61c.8-1.72,2.48-3.46-.32-4.94,1.3-1.91-.68-4.15.6-6,.91-1.35,1.19-2.41-.15-3.82s-.86-2.89,1-3.65c1-.42,1.79-.86,1.69-2.1,1.43,7.17,1.38,14.43,1,21.66-.29,5.26.93,10.23,1.94,15.3a57.58,57.58,0,0,1,.69,19.16C563.19,802.82,563,805.24,562.68,807.66Z" transform="translate(-313.45 -22)"/><path class="cls-1" d="M562.62,689.89c-.21,8.94-1,17.85-1.88,26.75a21.13,21.13,0,0,0,0,5.15,22.31,22.31,0,0,1-.63,9.94c-1.21,4,.2,8.11-.18,12.15l-1.81.31c-.24-.93,1.07-1.47.38-2.32-2.8-3.42-1.3-7.18-.85-10.84.28-2.22-.79-4.35-.47-6.45a27.2,27.2,0,0,0-.17-7.43c-.43-3.79-.06-7.8-.23-11.73-.09-2.12.45-4.35.47-6.55,0-.84.78-1,1.46-1.38A2,2,0,0,0,559,694c-.51-.4-1.16-.69-1.1-1.4.09-.94.91-1,1.65-1.05C560.89,691.51,561.47,690.17,562.62,689.89Z" transform="translate(-313.45 -22)"/><path class="cls-1" d="M566.44,649.53a136.92,136.92,0,0,1-1.36,18.64c-.61,5.2-.82,10.44-1.33,15.66a41.47,41.47,0,0,1-1.07,5c-1.79-.44-1.67-1.89-1.72-3.24-.17-5-.07-9.88,1.35-14.67a3.85,3.85,0,0,0-.26-2.87,3.93,3.93,0,0,1,.46-4.48c1.09-1.46.3-3.5-.53-5-1.06-1.95-.8-4-1-6-.07-.75.31-1.84,1-1.63C563.88,651.41,564.93,649.83,566.44,649.53Z" transform="translate(-313.45 -22)"/><path class="cls-1" d="M562.1,814c.88,4.41.44,8.87.5,13.31a2.18,2.18,0,0,1-2.22-1.17c-1-1.87-.71-7.89.8-9.47A3.65,3.65,0,0,0,562.1,814Z" transform="translate(-313.45 -22)"/><path class="cls-1" d="M544.6,418.28l0,6.55c-2-.26-1.71-1.81-1.66-3.12S542.42,418.64,544.6,418.28Z" transform="translate(-313.45 -22)"/><path class="cls-1" d="M513.87,835.52c-.13.69-.54,1.24-1.21,1.25a1.17,1.17,0,0,1-1.25-1.4,1.13,1.13,0,0,1,1.27-1.11A1.34,1.34,0,0,1,513.87,835.52Z" transform="translate(-313.45 -22)"/><path class="cls-3" d="M556.86,552.71a38.36,38.36,0,0,1-5.9.8c-3.5,0-5.81-3.22-5.27-7a21,21,0,0,1,.8-2.86c.31-1.6,1.63-1.76,2.88-2,9.52-2,16.16-7.64,20.47-16.2a19.61,19.61,0,0,1,2-3.52c1.09-1.36.65-1.9-1-2.33-5-1.3-10.09-.51-15.12-1.05a60.45,60.45,0,0,1-9.37-1.55c-3.82-1-5.79-3.74-6.4-7.55,2.31-5,4.29-6.08,10.22-5.32a154.19,154.19,0,0,0,27.65,1.41,209,209,0,0,1,24.14.61,14.46,14.46,0,0,0,8.34-1.89,18,18,0,0,1,5.07-1.93c4.62-1.5,8.87-3.87,13.37-5.68,1-.39,1.87-1.19,3-.41l.06.09c-.42,3.16,1.29,5.51,3,7.87a34.13,34.13,0,0,1,2.75,5c1.44,2.89,1.65,5.79-.34,8.49s-2,5.68-2.64,8.65l-1.77,1.61c-5.11,2.54-10.16,5.16-14,9.59-5.38,6.26-11.25,12.07-16.77,18.21-1.92,2.14-3.35,4.14-3,7.09-1.82,1.17-3.89,1.86-5.53,3.4a3.59,3.59,0,0,1-3.84.73c-1.5-.67-1.14-2.24-.95-3.4.35-2.26-.31-2.75-2.36-1.86s-3.86,1.58-5.83,2.28c-3.45,1.22-5.12.07-4.86-3.53.1-1.4-.18-1.42-1.19-.84-3,.48-6,1.13-9.06,1.37-1.74.14-3.94-.32-4.79-1.78-1-1.74.12-3.63,1.52-5.07a26,26,0,0,1,5.09-3.57,5.54,5.54,0,0,0,2.79-2.72C565.52,550,561.57,552.54,556.86,552.71Z" transform="translate(-313.45 -22)"/><path class="cls-15" d="M599.14,562.8c-1.59-1.85-1.36-3.66.21-5.35q10.89-11.76,21.83-23.48c2.64-2.81,6.67-3.63,9.4-6.38.6-.61,1.56-.1,2.29.32,1,1.31.6,2.59-.18,3.79-5.65,8.79-9.63,18.48-14.83,27.52a20.11,20.11,0,0,1-5.45,5.62c-1.44,1.12-3.21.86-4.95.32C604.71,564.3,601.91,563.58,599.14,562.8Z" transform="translate(-313.45 -22)"/><path class="cls-16" d="M634.64,526.3c-1.59-3.49,0-6.45,1.89-9.13s1.41-5.22.19-7.92c-1.35-3-3.36-5.56-5.09-8.31-1.13-1.79-1-3.16.25-4.64a8.61,8.61,0,0,0,4-.64,4,4,0,0,1,4.53.92,21.15,21.15,0,0,1,5.2,7.74c.88,2.57,1.58,5.46,5,6.44s3.84,4.18,3.61,7.34c-.48,4.63-3.66,7.5-6.88,10.25-2.5,2.12-8.42,1.65-11.13-.64Z" transform="translate(-313.45 -22)"/><path class="cls-8" d="M726.27,296.75c-.21,2-1.71,3.24-2.92,4.66-1.76,2.07-4.39,3.41-5.31,6.2.24.94.13,1.64-1.08,1.59l-3.26,6.51c-2,.58-2.71,1.57-1.1,3.33-2.24,3.93-2.39,8.41-3.25,12.69a8.25,8.25,0,0,1-.62,2.59c-.81.46-2-.83-2.43.2-.5,1.28.55,1.15,1.4.88a1.32,1.32,0,0,1,1,0c0,3.09-1.83,5.08-4.42,6.28-1.87.87-3,1.91-2.64,4.1s-1.21,5,2.49,6c1.85.48,1.61,2.31.29,3.12-1.71,1-1.05,2.18-.54,3.21.62,1.27,0,3.38,2.64,3.42,2.19,0,2.83,2,1.21,3.5-.89.83-1,1.62-.42,2.3,2,2.37,2.38,5.59,4.21,8,1.3,1.71,2.46,3.93,5.41,2.63a1.63,1.63,0,0,1,2.23,1.39c.21,1.07,0,2.09-1.25,2.34a1.82,1.82,0,0,0-1.65,1.81c-5.44,1-10.87,1.94-16.2-.5-1,.72-2.11.34-3.1,0-4.43-1.78-9-3.2-13.28-5.34-1.87-.94-4-1.79-4.54-4.25a2.7,2.7,0,0,1,1.39-1.19c.4-.21.8-.46.68-1a.6.6,0,0,0-.56-.48,1,1,0,0,0-1.09.91c-.07.61.08,1.27-.49,1.74-3.92-.69-6.51-3.34-8.61-6.34a43.78,43.78,0,0,1-4.75-10,4.72,4.72,0,0,1,.08-3.94l.16-.21c.49-.79,2.17-.56,1.88-1.86s-1.63-.68-2.48-1a2.22,2.22,0,0,1-.68-.4c-1.51-2.14-1.06-4.33-.17-6.53.36-7,3.67-13,7.26-18.71,3.26-5.17,6.83-10.17,9.76-15.56,3,.54,5.69-1.13,8.58-1.09,3.26,0,6.52.31,9.76.6a5.33,5.33,0,0,0,5.9-3.37c1.05-2.35,2.56-3.12,5.15-2.07,4.54,1.84,8.48,1,11.6-3.08C723.48,298.43,724.38,296.89,726.27,296.75Z" transform="translate(-313.45 -22)"/><path class="cls-6" d="M664.53,343c1.05,2.15-.79,4.6.71,6.7a3.72,3.72,0,0,1,.93,3.28c1.21,8.76,4.94,15.89,13.13,20.1h0c2.4,3.08,6,4.27,9.37,5.66,3.75,1.53,7.61,2.82,11.42,4.21.92,2.72.74,5.6.59,8.33-.26,4.93,1.1,9.9-.44,14.77a6.11,6.11,0,0,0,.32,3.2c.85,4-.13,7.87-.59,11.79a8.89,8.89,0,0,1-.63,4.23,68.59,68.59,0,0,0-3.72,11.89,25.55,25.55,0,0,1-3.23,8c-1.81,2.79-1.92,5.95-2.1,9.11a175.72,175.72,0,0,0-25.6,19.33,9.62,9.62,0,0,1-3.43,2.13,1.1,1.1,0,0,1-.54,0c-2.79-.79-2.79-.79-2.21,2.2-4.1,3.65-8.55,6.88-12.54,10.69-2.93,2.79-7.38,2.79-10.65,5.13a20,20,0,0,0-3.5,2.48c-4.43,2-8.86,4-13.31,5.93a17.25,17.25,0,0,1-2.58.71c-1.38-.48-.58-1.32-.21-1.89.88-1.35.16-2-1-2.5-1.65-.74-3.33-1.41-5-2.06a4,4,0,0,1-2.88-4.28c.07-6-.85-7.27-6.56-9.35A70.26,70.26,0,0,1,593,479.2a3.16,3.16,0,0,1-1.73-1.64c-.3-.85,1-1.91.09-2.43-1.11-.62-1.35,1.13-2.26,1.42a2.79,2.79,0,0,1-2.33,0c-.82-.38-1.28-1.42-2.61-1.4.3,1.3,1.78.76,2.13,1.63-.21,3.15-2.35,5.33-4,7.77a1.42,1.42,0,0,1-1.47.53c-4-1-8.08-1.78-11-5.06-.06-2.17-.39-4.33-.63-6.49-.27-2.4-1.19-5.07,2.93-5.42-4-.58-4-.58-3.34-4.71a95.11,95.11,0,0,1,2.61-12.77c1.78-5.79,5.2-10.65,8.63-15.35,1.55-2.11,2.76-3.32,2.4-6.2-.29-2.25,1.32-4.65,2.61-6.75a6.24,6.24,0,0,0,1.1-3.57c-.07-2.16.2-4.17,2.22-5.52.75-.5.65-1.22.07-1.87a3.24,3.24,0,0,1-1.07-2.71c.91-3.65.53-7.49,1.68-11.08a2.27,2.27,0,0,0-.35-2.23,4.45,4.45,0,0,1-.55-4.42c.93-2,.64-3.78.34-5.78-.55-3.62.49-7.22.57-10.84a17.33,17.33,0,0,0-.19-4.32,4.48,4.48,0,0,1-.29-1.88c.7-2.86,1.66-5.62-1.41-7.93-.76-.58-.22-2.09.51-3,.89-1.09.51-1.75-.6-2.33-2.08-1.07-3.15-2.4-1.37-4.71.85-1.09-.13-1.28-1-1.45-2.94-.56-3.88-2.22-3-5.21,4.53-.27,8.59,1.34,12.84,2.64,5,1.53,10.26,1.95,15.42,2.83.62.11,1.28,0,1.7.63-.32.76-1.1,1.41-.65,2.56,1.54-.69.17-1.85.63-2.59l12.18.05c.8,2.17,1.58,1.56,2.36,0,5.72.69,10.74-1.51,15.79-3.76a36.36,36.36,0,0,1,12.88-2.77C658.07,342.92,661.3,341.74,664.53,343Z" transform="translate(-313.45 -22)"/><path class="cls-11" d="M581.72,343.52c.27,1,.52,1.92.82,2.87s.44,2.18,2.13,1.24a2,2,0,0,1,2.74,1.12,1.69,1.69,0,0,1-.8,2.33c-2.81,1.43-.67,2.28.43,2.77,3.39,1.49,3.34,1.33,1.15,4.16-1,1.34-.68,2.71,1,3.48,2.82,1.29,3,1.76.93,3.92a2.56,2.56,0,0,0-.67,2.72c1.31,4.21.35,8.37,0,12.57-.17,2.2-.77,4.5.64,6.61.67,1,0,1.8-.56,2.7-1.06,1.8-1.56,3.67.49,5.27a1.66,1.66,0,0,1,0,3c-1.58,1.16-1.52,2.22-.27,3.58.81.87.5,1.8-.2,2.69-1.95,2.48-1.82,4,.33,6.6,1.11,1.32.5,2.39-.78,3.1-.78.44-2.05.58-1.82,1.68,1,4.94-2.62,8.39-3.93,12.57-.36,1.16-.46,1.81.5,2.81,1.43,1.5.7,3-1.4,3.45-.6.12-1.31-.15-1.7.57-3.69,6.71-8.58,12.85-9.85,20.7-.61,3.73-1.11,7.48-1.69,11.45,1.22-.87,2.31-1.85,3.66-.79a1.66,1.66,0,0,1,.37,2.22c-.82,1.66-2.13.82-3.55.56.32,2.41.63,4.7.91,7,.16,1.24.61,2.52-.43,3.61-.15.1-.33.26-.48.23a30.08,30.08,0,0,1-12-5.18c-.6-2.63.43-5,1.22-7.4,2.25-6.69,4.29-13.54,7.36-19.85,2.39-4.91,3.78-10.18,6.31-14.94a20.21,20.21,0,0,0,1.14-16.78c-.64-1.91-1.77-3.86-.83-6-.35-1.59-.77-3.16-1-4.76a20.57,20.57,0,0,0-3.14-8,33.5,33.5,0,0,1-4.93-15.92,100.27,100.27,0,0,1,1.4-24.87,20.24,20.24,0,0,0,.14-2.71c.48-2,.84-4.05,1.45-6,1.54-4.94,4.59-8.94,8.17-12.58a2.57,2.57,0,0,1,3.43-.44C579.89,337.56,579.63,341,581.72,343.52Z" transform="translate(-313.45 -22)"/><path class="cls-17" d="M636.91,174a13,13,0,0,1-8.49-2.79c-.47-.36-1.21-.78-.55-1.47.48-.5,1.11-.95,1.79,0,1.76,2.35,4.32,2.62,7,2.67,1.08,0,3-.58,3,.8S637.71,173.76,636.91,174Z" transform="translate(-313.45 -22)"/><path class="cls-18" d="M488.52,223.56a39.6,39.6,0,0,1-1.41,5.21c-2.69,6.45-2.71,13.12-1.15,19.7,3.64,15.33,5.86,30.9,5.37,46.55-.33,10.86.35,21.78-.84,32.55-1.14,10.42-.74,20.81-1.15,31.21-.14,3.53-.1,7.09-.51,10.59-.56,4.78,1.51,9.28,1.13,14-3.23-6.53-4.4-13.73-6.7-20.56-4.71-14-8.23-28.39-15.51-41.4a5.64,5.64,0,0,1-1.1-3c.72-9.65,1.71-19.29,2-28.95.3-10.23,1.4-20.48.39-30.72-.54-5.5.61-10.85,1.22-16.25q.51-4.46,1.36-8.87a4.05,4.05,0,0,0-1.75-4.45,18.37,18.37,0,0,0-4.63-2.81c-1.26-.46-2.64-1-2.48-2.76,1.22-1.57,2.77-3,3.59-4.73,2.48-5.25,7.44-5.15,12-6a1.36,1.36,0,0,1,1,.28C482.85,216.23,486.83,218.88,488.52,223.56Z" transform="translate(-313.45 -22)"/><path class="cls-6" d="M462.74,223.57a3.29,3.29,0,0,0,2.54,1.79,10.69,10.69,0,0,1,3.25,1.28c3.64,2.16,4.86,4.73,3.88,9.26A116.65,116.65,0,0,0,470.23,265c.62,16.28-1,32.53-2.14,48.78a11.42,11.42,0,0,1-1.44,4.58,157.38,157.38,0,0,0-7-16.1,87.89,87.89,0,0,1-5.27-15c-2.14-7.92-6.2-15.2-8.09-23.26-2.31-9.86-5.7-19.42-8.2-29.24-2.71-10.6-6.07-21-9.11-31.53-.41-1.38-.66-2.81-1-4.22,4.33,4.28,9.29,8.1,12.79,13,3.34,4.65,7.39,8.44,11.25,12.49s5.41,4,9.47.12C461.88,224.23,462.32,223.91,462.74,223.57Z" transform="translate(-313.45 -22)"/><path class="cls-19" d="M556.59,300.38c-.39.38-.72,1-1.17,1.09a62,62,0,0,1-11.19,1.47,1.88,1.88,0,0,1-1.76-1.81c-.24-1.89-.48-3.79-.55-5.69,0-1.05.51-2.16,1.69-2.08,3.79.25,6.95-2,10.53-2.49,1.3-.19,2.72-.79,3.62.83,0,.95,0,1.89,0,2.83.45,1.71-.46,3.24-.63,4.87A.94.94,0,0,0,556.59,300.38Z" transform="translate(-313.45 -22)"/><path class="cls-1" d="M557.12,299.4l.63-4.87c1.21,1.68-.49,3.2-.26,4.83,0,.05-.09.16-.13.16A.77.77,0,0,1,557.12,299.4Z" transform="translate(-313.45 -22)"/><path class="cls-3" d="M629.7,987.72c4.16-.18,8.32-.3,12.48-.58,1.75-.11,2.7.42,3,2.21.75,4.17,1.6,8.33,2.41,12.49-1.84-.2-3.23,1-4.82,1.56-3.38,1.18-6.88.58-10.12-.13-2.87-.62-3.28-3.85-3.47-6.42A27,27,0,0,1,629.7,987.72Z" transform="translate(-313.45 -22)"/><path class="cls-3" d="M644.93,959.9a.72.72,0,0,1-.1-1.16c6.06-5.73,9.45-13.27,13.77-20.17,4.21.35,7.92,2.56,12,3.21,6.07,1,12.13,2,18.22,2.75,1.91.25,1.92.91,1.1,2.19a17,17,0,0,1-2.51,3.53c-3.46,3.16-5.37,7.28-7.34,11.35a97.2,97.2,0,0,1-5.72,10.21c-7.59.37-15.18.71-22.77,1.14-1.74.1-2.4-.4-2.4-2.22,0-2.8-.29-5.6-.45-8.4S647.69,959,644.93,959.9Z" transform="translate(-313.45 -22)"/><path class="cls-3" d="M571.83,1066.28c-2.6.53-5.27,1.51-7.5-.91-.59-.65-.9-.11-1.31.2-5.11,3.76-5.6,3.78-10.33,0a1.71,1.71,0,0,0-1.76-.32c-1.85.66-3.76.36-5.65.37-2.73,0-4.22-1.52-4.51-4.27-.44-4,1.54-7.09,3.93-10,2.87,1.31,5.94.78,8.84.52,4.29-.37,7.32.85,9.85,4.45S569,1063,571.83,1066.28Z" transform="translate(-313.45 -22)"/><path class="cls-20" d="M551.69,472.8c1.92,1.38,4.42,1.08,6.44,2.2l12,5a74.11,74.11,0,0,0,9.38,4.05c1.49.54,2.4.43,3.14-1.25a63.07,63.07,0,0,1,3.44-6.08c0-.38.17-.55.52-.59l2.67-.07c1.15-.4,1.76.19,2.17,1.16a84.29,84.29,0,0,0,9.65,4.82c5.92,2.19,7.22,4.22,6.7,10.4-.14,1.75.34,2.39,1.86,2.88,1.88.62,3.68,1.49,5.53,2.22,2.9,1.15,3.13,2.24.8,4.21-.47.4-.48.68-.09,1.07-6.22,3.47-12.56,5.26-19.95,3.95-9-1.58-18.08.23-27.15-.12a165.3,165.3,0,0,1-16.5-1.36c-5.06-.71-9.53-.7-12.05,4.73-2.57,3.31-6.11,5.54-9.32,8.12-1.09.88-2.4,1.75-3.86.46a70.81,70.81,0,0,1,8.51-27.78c3.44-6.17,6.88-12.39,12.27-17.2C549.07,472.58,550.13,471.8,551.69,472.8Z" transform="translate(-313.45 -22)"/><path class="cls-21" d="M527.1,518.63c1.32.54,2.34-.24,3.15-1,2.51-2.3,5.59-3.9,7.77-6.56.6-.74,1.22-1.33,2.26-1,.3.21.75.36.85.65,2.58,7.14,9.1,6,14.56,6.77a56.73,56.73,0,0,0,10.68.28c2-.1,4.19.74,6.3,1.15,1.71.34,1.81,1.79.61,2.87a12.48,12.48,0,0,0-2.8,4.57c-3.28,7.38-9.51,11.65-16.29,15.22-1.53.8-3.49.83-5.27,1a4.14,4.14,0,0,0-2.43,1c-2.66-2.37-6.14-2.57-9.35-3.19-4.07-.79-7.65-2.63-11.37-4.22a1.88,1.88,0,0,1-1.2-2.18C525.42,528.91,525.75,523.68,527.1,518.63Z" transform="translate(-313.45 -22)"/><text class="cls-22" transform="matrix(0.77, -0.64, 0.64, 0.77, 343.58, 76.02)">1</text><text class="cls-22" transform="translate(347.77 71.64) rotate(-23.98)"> </text><text class="cls-22" transform="translate(355.39 67.14) rotate(-3.83)">d</text><text class="cls-22" transform="translate(372.56 65.73) rotate(13.42)">e</text><text class="cls-22" transform="translate(390 70.32) rotate(23.66)"> </text><text class="cls-22" transform="translate(399.98 74.64) rotate(32.02)">j</text><text class="cls-22" transform="translate(408.44 79.3) rotate(41.69)">u</text><text class="cls-22" transform="translate(420.64 89.86) rotate(54.42)">n</text><text class="cls-22" transform="matrix(0.46, 0.89, -0.89, 0.46, 429.93, 103.22)">i</text><text class="cls-22" transform="translate(433.59 110.07) rotate(65.68)">o</text><text class="cls-22" transform="translate(438.79 123.06) rotate(70.57)"> </text><text class="cls-22" transform="matrix(0.33, 0.95, -0.95, 0.33, 443.23, 134.04)">d</text><text class="cls-22" transform="translate(449.02 153.82) rotate(67.38)">e</text><text class="cls-22" transform="matrix(0.42, 0.91, -0.91, 0.42, 456.76, 172.23)"> </text><text class="cls-22" transform="matrix(0.4, 0.92, -0.92, 0.4, 462.62, 182.52)">2</text><text class="cls-22" transform="translate(470.16 199.9) rotate(75.35)">0</text><text class="cls-22" transform="translate(474.39 216.09) rotate(86.19)">2</text><text class="cls-22" transform="translate(476.17 234.83) rotate(98.15)">4</text><text class="cls-22" transform="translate(474.28 255.22) rotate(127.83)"> </text></svg>